<svg width="88" height="89" viewBox="0 0 88 89" fill="none" xmlns="http://www.w3.org/2000/svg">
<path fill-rule="evenodd" clip-rule="evenodd" d="M66.0016 24.0782C66.5299 23.5499 66.5299 22.6934 66.0016 22.1652C65.4733 21.6369 64.6169 21.6369 64.0886 22.1652L44.0012 42.2526L23.8763 22.1932C23.3472 21.6658 22.4907 21.6672 21.9634 22.1963C21.436 22.7254 21.4374 23.5819 21.9665 24.1093L42.0882 44.1656L22.0016 64.2522C21.4734 64.7804 21.4734 65.6369 22.0016 66.1652C22.5299 66.6934 23.3863 66.6934 23.9146 66.1652L44.0043 46.0754L64.1221 66.1277C64.6512 66.6551 65.5077 66.6537 66.0351 66.1246C66.5625 65.5955 66.5611 64.739 66.032 64.2116L45.9173 44.1624L66.0016 24.0782Z" fill="#8E8E93"/>
</svg>
