<svg width="58" height="59" viewBox="0 0 58 59" fill="none" xmlns="http://www.w3.org/2000/svg">
<circle cx="29" cy="29.1626" r="26.4444" stroke="white" stroke-width="4.88889"/>
<circle cx="29" cy="29.1626" r="26.037" fill="#038745" stroke="#038745" stroke-width="4.07407"/>
<circle cx="29" cy="29.1626" r="21.963" fill="#34C759" stroke="white" stroke-width="4.07407"/>
<mask id="path-4-outside-1_159_604646" maskUnits="userSpaceOnUse" x="16.5762" y="15.019" width="24" height="24" fill="black">
<rect fill="white" x="16.5762" y="15.019" width="24" height="24"/>
<path fill-rule="evenodd" clip-rule="evenodd" d="M33.8993 21.5347C34.7594 21.285 33.4706 19.7596 30.952 18.3443C28.4334 16.9289 26.3112 16.6581 24.4164 17.48C23.1259 18.0397 23.4906 20.3802 24.325 20.8193L24.3429 21.0213L24.374 21.3835L23.9664 21.3846C23.7924 21.3851 23.6545 21.5314 23.6642 21.7052L23.6746 21.8914L23.784 23.6048C23.7973 23.7346 23.9066 23.8328 24.0389 23.8328H24.6783L24.8443 25.4716C24.8653 25.6788 24.9182 25.8787 25.0008 26.0657L24.0412 28.7001H24.0317L23.9388 28.6468C23.8712 28.6079 23.8026 28.5723 23.7327 28.5377C23.6628 28.5032 23.2038 28.5298 23.2038 28.5298L20.0886 30.3153C19.3751 30.7242 18.9084 31.4579 18.8403 32.2775L18.5814 35.3959C18.5088 36.2703 19.1989 37.02 20.0763 37.02H28.571V35.7231H28.5722V37.02H37.0669C37.9443 37.02 38.6343 36.2703 38.5617 35.3959L38.3028 32.2775C38.2348 31.4579 37.7681 30.7242 37.0546 30.3153L33.9394 28.5298C33.9394 28.5298 33.4804 28.5032 33.4105 28.5377C33.3431 28.571 33.2768 28.6054 33.2116 28.6426L32.3062 26.0596C32.3872 25.8743 32.4392 25.6766 32.46 25.4716L32.626 23.8322H33.2655C33.3977 23.8322 33.507 23.734 33.5203 23.6042L33.6458 21.5761C33.7327 21.5716 33.8174 21.5585 33.8993 21.5347Z"/>
</mask>
<path d="M30.952 18.3443L31.6869 17.0366L31.6869 17.0366L30.952 18.3443ZM33.8993 21.5347L34.3175 22.9752L34.3175 22.9752L33.8993 21.5347ZM24.4164 17.48L25.0133 18.8561L25.0133 18.8561L24.4164 17.48ZM24.325 20.8193L25.8192 20.6874L25.7473 19.8727L25.0236 19.4919L24.325 20.8193ZM24.3429 21.0213L25.8373 20.8926L25.8371 20.8893L24.3429 21.0213ZM24.374 21.3835L24.3783 22.8835L26.0083 22.8789L25.8685 21.2548L24.374 21.3835ZM23.9664 21.3846L23.9707 22.8846H23.9707L23.9664 21.3846ZM23.6642 21.7052L22.1665 21.7891L22.1665 21.7891L23.6642 21.7052ZM23.6746 21.8914L22.1769 21.9753L22.1777 21.987L23.6746 21.8914ZM23.784 23.6048L22.2871 23.7004L22.2889 23.729L22.2918 23.7575L23.784 23.6048ZM24.6783 23.8328L26.1706 23.6816L26.034 22.3328H24.6783V23.8328ZM24.8443 25.4716L23.352 25.6228L23.352 25.6231L24.8443 25.4716ZM25.0008 26.0657L26.4102 26.5791L26.6167 26.0122L26.3731 25.4602L25.0008 26.0657ZM24.0412 28.7001V30.2001H25.0912L25.4506 29.2135L24.0412 28.7001ZM24.0317 28.7001L23.285 30.001L23.6318 30.2001H24.0317V28.7001ZM23.9388 28.6468L23.1918 29.9475L23.1921 29.9477L23.9388 28.6468ZM23.7327 28.5377L23.068 29.8824L23.068 29.8824L23.7327 28.5377ZM23.2038 28.5298L23.1168 27.0324L22.7643 27.0528L22.4579 27.2284L23.2038 28.5298ZM20.0886 30.3153L19.3427 29.0139H19.3427L20.0886 30.3153ZM18.8403 32.2775L20.3352 32.4016L18.8403 32.2775ZM18.5814 35.3959L20.0763 35.52H20.0763L18.5814 35.3959ZM28.571 37.02V38.52H30.071V37.02H28.571ZM28.571 35.7231V34.2231H27.071V35.7231H28.571ZM28.5722 35.7231H30.0722V34.2231H28.5722V35.7231ZM28.5722 37.02H27.0722V38.52H28.5722V37.02ZM38.5617 35.3959L37.0669 35.52V35.52L38.5617 35.3959ZM38.3028 32.2775L36.808 32.4016V32.4016L38.3028 32.2775ZM37.0546 30.3153L37.8005 29.0139L37.0546 30.3153ZM33.9394 28.5298L34.6853 27.2284L34.3789 27.0528L34.0263 27.0324L33.9394 28.5298ZM33.4105 28.5377L34.0751 29.8824L34.0751 29.8824L33.4105 28.5377ZM33.2116 28.6426L31.796 29.1388L32.3914 30.8373L33.9548 29.9456L33.2116 28.6426ZM32.3062 26.0596L30.9318 25.4588L30.6956 25.9992L30.8907 26.5558L32.3062 26.0596ZM32.46 25.4716L33.9523 25.6231L33.9524 25.6228L32.46 25.4716ZM32.626 23.8322V22.3322H31.2703L31.1337 23.681L32.626 23.8322ZM33.5203 23.6042L35.0125 23.7569L35.0156 23.7269L35.0174 23.6968L33.5203 23.6042ZM33.6458 21.5761L33.5694 20.078L32.2314 20.1462L32.1487 21.4834L33.6458 21.5761ZM30.2171 19.6519C31.3962 20.3145 32.1962 20.9553 32.5768 21.379C32.8034 21.6313 32.7263 21.6354 32.6838 21.4182C32.6541 21.2667 32.6348 20.9395 32.8461 20.5967C33.056 20.2564 33.3508 20.132 33.4811 20.0942L34.3175 22.9752C34.6628 22.875 35.1055 22.6483 35.3997 22.1712C35.6954 21.6917 35.6968 21.1933 35.6279 20.8415C35.5069 20.2239 35.1115 19.7114 34.8086 19.3742C34.1301 18.6189 33.0264 17.7894 31.6869 17.0366L30.2171 19.6519ZM25.0133 18.8561C26.3291 18.2853 27.9415 18.3731 30.2171 19.6519L31.6869 17.0366C28.9252 15.4847 26.2933 15.0308 23.8195 16.1038L25.0133 18.8561ZM25.0236 19.4919C25.1389 19.5526 25.1917 19.6159 25.1991 19.625C25.2083 19.6362 25.1949 19.6222 25.1721 19.5719C25.1244 19.4667 25.0808 19.3028 25.0721 19.1228C25.0633 18.9393 25.0943 18.8234 25.1132 18.7804C25.1232 18.7579 25.096 18.8202 25.0133 18.8561L23.8195 16.1038C22.3185 16.7549 22.0297 18.3131 22.0756 19.267C22.1011 19.7969 22.2244 20.3354 22.4395 20.8101C22.6391 21.2506 23.0022 21.8182 23.6265 22.1467L25.0236 19.4919ZM25.8371 20.8893L25.8192 20.6874L22.8309 20.9512L22.8487 21.1532L25.8371 20.8893ZM25.8685 21.2548L25.8373 20.8926L22.8484 21.1499L22.8796 21.5121L25.8685 21.2548ZM23.9707 22.8846L24.3783 22.8835L24.3698 19.8835L23.9622 19.8846L23.9707 22.8846ZM25.1618 21.6212C25.2002 22.3059 24.6564 22.8827 23.9707 22.8846L23.9622 19.8846C22.9285 19.8875 22.1087 20.757 22.1665 21.7891L25.1618 21.6212ZM25.1723 21.8075L25.1618 21.6212L22.1665 21.7891L22.177 21.9753L25.1723 21.8075ZM25.281 23.5092L25.1716 21.7958L22.1777 21.987L22.2871 23.7004L25.281 23.5092ZM24.0389 22.3328C24.6651 22.3328 25.2101 22.8059 25.2763 23.4521L22.2918 23.7575C22.3845 24.6634 23.1482 25.3328 24.0389 25.3328V22.3328ZM24.6783 22.3328H24.0389V25.3328H24.6783V22.3328ZM26.3367 25.3204L26.1706 23.6816L23.1859 23.984L23.352 25.6228L26.3367 25.3204ZM26.3731 25.4602C26.3546 25.4182 26.3419 25.3717 26.3366 25.3201L23.352 25.6231C23.3888 25.9859 23.4818 26.3391 23.6284 26.6713L26.3731 25.4602ZM25.4506 29.2135L26.4102 26.5791L23.5914 25.5523L22.6318 28.1867L25.4506 29.2135ZM24.0317 30.2001H24.0412V27.2001H24.0317V30.2001ZM23.1921 29.9477L23.285 30.001L24.7784 27.3991L24.6856 27.3458L23.1921 29.9477ZM23.068 29.8824C23.1207 29.9085 23.1599 29.9292 23.1918 29.9475L24.6859 27.346C24.5826 27.2867 24.4844 27.236 24.3973 27.193L23.068 29.8824ZM23.2038 28.5298C23.2908 30.0273 23.2907 30.0273 23.2906 30.0273C23.2906 30.0273 23.2906 30.0273 23.2905 30.0273C23.2905 30.0273 23.2904 30.0273 23.2903 30.0273C23.2902 30.0273 23.2902 30.0273 23.2901 30.0274C23.29 30.0274 23.29 30.0274 23.2901 30.0274C23.2902 30.0273 23.2908 30.0273 23.2918 30.0273C23.2937 30.0272 23.2971 30.027 23.3017 30.0267C23.3111 30.0262 23.3255 30.0255 23.3431 30.0247C23.3795 30.0231 23.4256 30.0214 23.4705 30.0206C23.4928 30.0201 23.5123 30.02 23.5285 30.02C23.5364 30.0201 23.5427 30.0202 23.5473 30.0203C23.5521 30.0204 23.5541 30.0204 23.5537 30.0204C23.5536 30.0204 23.5487 30.0202 23.5399 30.0195C23.5318 30.0189 23.5146 30.0174 23.4908 30.0142C23.4693 30.0113 23.426 30.0049 23.3702 29.9917C23.3259 29.9812 23.2084 29.9518 23.068 29.8824L24.3974 27.193C24.1486 27.0701 23.9167 27.0444 23.889 27.0407C23.8081 27.0299 23.7356 27.0256 23.6874 27.0234C23.5878 27.019 23.4873 27.0197 23.4135 27.0211C23.335 27.0226 23.262 27.0254 23.2101 27.0277C23.1836 27.0289 23.1615 27.03 23.1456 27.0308C23.1375 27.0312 23.131 27.0316 23.1262 27.0318C23.1237 27.032 23.1217 27.0321 23.1202 27.0322C23.1194 27.0322 23.1187 27.0323 23.1181 27.0323C23.1179 27.0323 23.1176 27.0323 23.1174 27.0323C23.1173 27.0323 23.1172 27.0323 23.1171 27.0323C23.117 27.0323 23.117 27.0324 23.1169 27.0324C23.1169 27.0324 23.1168 27.0324 23.2038 28.5298ZM20.8345 31.6167L23.9497 29.8312L22.4579 27.2284L19.3427 29.0139L20.8345 31.6167ZM20.3352 32.4016C20.3624 32.0737 20.5491 31.7803 20.8345 31.6167L19.3427 29.0139C18.2011 29.6682 17.4543 30.8421 17.3455 32.1533L20.3352 32.4016ZM20.0763 35.52L20.3352 32.4016L17.3455 32.1533L17.0866 35.2718L20.0763 35.52ZM20.0763 35.52H20.0763L17.0866 35.2718C16.9414 37.0205 18.3215 38.52 20.0763 38.52V35.52ZM28.571 35.52H20.0763V38.52H28.571V35.52ZM27.071 35.7231V37.02H30.071V35.7231H27.071ZM28.5722 34.2231H28.571V37.2231H28.5722V34.2231ZM30.0722 37.02V35.7231H27.0722V37.02H30.0722ZM37.0669 35.52H28.5722V38.52H37.0669V35.52ZM37.0669 35.52L37.0669 35.52V38.52C38.8216 38.52 40.2018 37.0205 40.0566 35.2718L37.0669 35.52ZM36.808 32.4016L37.0669 35.52L40.0566 35.2718L39.7977 32.1533L36.808 32.4016ZM36.3087 31.6167C36.5941 31.7803 36.7808 32.0737 36.808 32.4016L39.7977 32.1533C39.6888 30.8421 38.942 29.6682 37.8005 29.0139L36.3087 31.6167ZM33.1935 29.8312L36.3087 31.6167L37.8005 29.0139L34.6853 27.2284L33.1935 29.8312ZM34.0751 29.8824C33.9348 29.9518 33.8173 29.9812 33.773 29.9917C33.7171 30.0049 33.6738 30.0113 33.6524 30.0142C33.6286 30.0174 33.6113 30.0189 33.6032 30.0195C33.5945 30.0202 33.5896 30.0204 33.5894 30.0204C33.589 30.0204 33.5911 30.0204 33.5958 30.0203C33.6005 30.0202 33.6068 30.0201 33.6147 30.02C33.6308 30.02 33.6504 30.0201 33.6726 30.0206C33.7176 30.0214 33.7637 30.0231 33.8 30.0247C33.8177 30.0255 33.832 30.0262 33.8414 30.0267C33.8461 30.027 33.8495 30.0272 33.8514 30.0273C33.8523 30.0273 33.8529 30.0273 33.8531 30.0274C33.8532 30.0274 33.8532 30.0274 33.8531 30.0274C33.853 30.0273 33.8529 30.0273 33.8528 30.0273C33.8528 30.0273 33.8527 30.0273 33.8526 30.0273C33.8526 30.0273 33.8525 30.0273 33.8525 30.0273C33.8525 30.0273 33.8524 30.0273 33.9394 28.5298C34.0263 27.0324 34.0263 27.0324 34.0262 27.0324C34.0262 27.0324 34.0261 27.0323 34.0261 27.0323C34.026 27.0323 34.0259 27.0323 34.0258 27.0323C34.0255 27.0323 34.0253 27.0323 34.025 27.0323C34.0245 27.0323 34.0238 27.0322 34.023 27.0322C34.0214 27.0321 34.0194 27.032 34.017 27.0318C34.0122 27.0316 34.0056 27.0312 33.9976 27.0308C33.9816 27.03 33.9595 27.0289 33.9331 27.0277C33.8812 27.0254 33.8082 27.0226 33.7296 27.0211C33.6558 27.0197 33.5554 27.019 33.4558 27.0234C33.4076 27.0256 33.335 27.0299 33.2542 27.0407C33.2265 27.0444 32.9945 27.0701 32.7458 27.193L34.0751 29.8824ZM33.9548 29.9456C33.9861 29.9277 34.0243 29.9075 34.0751 29.8824L32.7458 27.193C32.6619 27.2345 32.5675 27.2831 32.4684 27.3397L33.9548 29.9456ZM30.8907 26.5558L31.796 29.1388L34.6271 28.1464L33.7218 25.5635L30.8907 26.5558ZM30.9677 25.3201C30.9625 25.3712 30.95 25.4172 30.9318 25.4588L33.6806 26.6605C33.8245 26.3314 33.9159 25.982 33.9523 25.6231L30.9677 25.3201ZM31.1337 23.681L30.9676 25.3205L33.9524 25.6228L34.1184 23.9833L31.1337 23.681ZM33.2655 22.3322H32.626V25.3322H33.2655V22.3322ZM32.0281 23.4515C32.0942 22.8052 32.6394 22.3322 33.2655 22.3322V25.3322C34.156 25.3322 34.9198 24.6629 35.0125 23.7569L32.0281 23.4515ZM32.1487 21.4834L32.0232 23.5116L35.0174 23.6968L35.1429 21.6687L32.1487 21.4834ZM33.4811 20.0942C33.5234 20.0819 33.5547 20.0788 33.5694 20.078L33.7222 23.0741C33.9107 23.0645 34.1115 23.035 34.3175 22.9752L33.4811 20.0942Z" fill="white" mask="url(#path-4-outside-1_159_604646)"/>
<path d="M23.7402 28.5239H33.4975V35.7234H23.7402V28.5239Z" fill="#038745"/>
<path d="M23.9298 29.4658L25.1302 26.1704H32.1806L33.3362 29.4674L32.2748 33.6968H25.1387L23.9298 29.4658Z" fill="#FEE9C3" stroke="#FBBC4C" stroke-width="0.3125"/>
<path d="M37.0666 36.8643H28.7281V32.5634H28.7284L28.728 32.5558L28.728 32.5556L28.728 32.5556L28.7279 32.5555L28.7279 32.5554L28.7279 32.5539L28.7277 32.5448C28.7275 32.5363 28.7274 32.523 28.7278 32.5053C28.7285 32.4699 28.731 32.4173 28.7381 32.3517C28.7525 32.2202 28.7854 32.0377 28.8597 31.836C29.0073 31.4352 29.3185 30.956 29.9831 30.645L29.9832 30.6453L29.9922 30.6403C31.2332 29.9573 32.8542 29.0284 33.2819 28.7827C33.3424 28.748 33.4045 28.7155 33.4688 28.6835C33.4702 28.6833 33.4718 28.6831 33.4737 28.6828C33.4865 28.6811 33.5051 28.6796 33.5293 28.6785C33.5773 28.6764 33.6374 28.6764 33.6979 28.6775C33.7579 28.6787 33.816 28.6809 33.8593 28.6828L33.8938 28.6845L36.9766 30.4513C37.6455 30.8347 38.083 31.5225 38.1468 32.2909L38.4057 35.4093C38.4708 36.1926 37.8526 36.8643 37.0666 36.8643Z" fill="#34C759" stroke="#038745" stroke-width="0.3125" stroke-miterlimit="10"/>
<path d="M20.076 36.8643H28.4144V32.5634H28.4142L28.4146 32.5558L28.4146 32.5556L28.4146 32.5556L28.4146 32.5555L28.4146 32.5554L28.4147 32.5539L28.4149 32.5448C28.4151 32.5363 28.4151 32.523 28.4148 32.5053C28.4141 32.4699 28.4116 32.4173 28.4044 32.3517C28.3901 32.2202 28.3572 32.0377 28.2829 31.836C28.1353 31.4352 27.8241 30.956 27.1595 30.645L27.1594 30.6453L27.1504 30.6403C25.9094 29.9573 24.2884 29.0284 23.8607 28.7827C23.8002 28.748 23.7381 28.7155 23.6737 28.6835C23.6724 28.6833 23.6708 28.6831 23.6689 28.6828C23.656 28.6811 23.6375 28.6796 23.6133 28.6785C23.5653 28.6764 23.5052 28.6764 23.4447 28.6775C23.3847 28.6787 23.3266 28.6809 23.2832 28.6828L23.2488 28.6845L20.166 30.4513C19.4971 30.8347 19.0595 31.5225 18.9957 32.2909L18.7368 35.4093C18.6718 36.1926 19.29 36.8643 20.076 36.8643Z" fill="#34C759" stroke="#038745" stroke-width="0.3125" stroke-miterlimit="10"/>
<mask id="path-10-inside-2_159_604646" fill="white">
<path fill-rule="evenodd" clip-rule="evenodd" d="M24.317 20.7253L24.375 21.3828L23.9666 21.3839C23.7926 21.3844 23.6547 21.5308 23.6644 21.7045L23.6748 21.8908L23.7842 23.6041C23.7975 23.734 23.9068 23.8321 24.039 23.8321H24.6785L24.8445 25.471C24.8856 25.8754 25.048 26.2518 25.3155 26.5599L27.0919 28.6093C27.3062 28.8564 27.6178 28.9982 27.9468 28.9982H29.3579C29.6876 28.9982 29.9991 28.8564 30.2129 28.6093L31.9892 26.5599C32.2567 26.2518 32.4191 25.8754 32.4602 25.471L32.6262 23.8315H33.2657C33.3979 23.8315 33.5072 23.7334 33.5205 23.6035L33.6477 21.5471C33.6531 21.4598 33.5839 21.3861 33.4965 21.3859L32.9336 21.3848L32.9927 20.7144"/>
</mask>
<path fill-rule="evenodd" clip-rule="evenodd" d="M24.317 20.7253L24.375 21.3828L23.9666 21.3839C23.7926 21.3844 23.6547 21.5308 23.6644 21.7045L23.6748 21.8908L23.7842 23.6041C23.7975 23.734 23.9068 23.8321 24.039 23.8321H24.6785L24.8445 25.471C24.8856 25.8754 25.048 26.2518 25.3155 26.5599L27.0919 28.6093C27.3062 28.8564 27.6178 28.9982 27.9468 28.9982H29.3579C29.6876 28.9982 29.9991 28.8564 30.2129 28.6093L31.9892 26.5599C32.2567 26.2518 32.4191 25.8754 32.4602 25.471L32.6262 23.8315H33.2657C33.3979 23.8315 33.5072 23.7334 33.5205 23.6035L33.6477 21.5471C33.6531 21.4598 33.5839 21.3861 33.4965 21.3859L32.9336 21.3848L32.9927 20.7144" fill="#FEE9C3"/>
<path d="M24.6283 20.6978C24.6131 20.5259 24.4614 20.3988 24.2895 20.414C24.1176 20.4292 23.9905 20.5808 24.0057 20.7528L24.6283 20.6978ZM23.7842 23.6041L23.4722 23.6241L23.4734 23.6359L23.7842 23.6041ZM24.6785 23.8321L24.9894 23.8006L24.9609 23.5196H24.6785V23.8321ZM24.8445 25.471L24.5336 25.5025L24.5336 25.5025L24.8445 25.471ZM25.3155 26.5599L25.5516 26.3553L25.5515 26.3551L25.3155 26.5599ZM27.0919 28.6093L26.8557 28.8139L26.8558 28.814L27.0919 28.6093ZM30.2129 28.6093L29.9767 28.4046L29.9765 28.4048L30.2129 28.6093ZM31.9892 26.5599L31.7532 26.3551L31.7531 26.3553L31.9892 26.5599ZM32.4602 25.471L32.7711 25.5025L32.7711 25.5024L32.4602 25.471ZM32.6262 23.8315V23.519H32.3438L32.3153 23.8L32.6262 23.8315ZM33.5205 23.6035L33.8316 23.6354L33.8324 23.6228L33.5205 23.6035ZM33.304 20.7418C33.3191 20.5698 33.192 20.4182 33.0201 20.4031C32.8482 20.3879 32.6965 20.515 32.6814 20.6869L33.304 20.7418ZM23.6748 21.8908L23.3628 21.9082L23.363 21.9107L23.6748 21.8908ZM24.375 21.3828L24.3759 21.6953L24.7163 21.6943L24.6863 21.3553L24.375 21.3828ZM32.9336 21.3848L32.6223 21.3574L32.5925 21.6967L32.933 21.6973L32.9336 21.3848ZM33.6477 21.5471L33.9596 21.5664L33.6477 21.5471ZM33.4965 21.3859L33.4959 21.6984L33.4965 21.3859ZM23.4734 23.6359C23.5032 23.9275 23.7488 24.1446 24.039 24.1446V23.5196C24.0648 23.5196 24.0919 23.5405 24.0951 23.5723L23.4734 23.6359ZM24.039 24.1446H24.6785V23.5196H24.039V24.1446ZM24.3676 23.8636L24.5336 25.5025L25.1554 25.4395L24.9894 23.8006L24.3676 23.8636ZM24.5336 25.5025C24.5812 25.9711 24.7698 26.408 25.0795 26.7648L25.5515 26.3551C25.3262 26.0956 25.19 25.7798 25.1554 25.4394L24.5336 25.5025ZM25.0793 26.7646L26.8557 28.8139L27.328 28.4046L25.5516 26.3553L25.0793 26.7646ZM26.8558 28.814C27.1298 29.13 27.5277 29.3107 27.9468 29.3107V28.6857C27.7078 28.6857 27.4826 28.5828 27.3279 28.4045L26.8558 28.814ZM27.9468 29.3107H29.3579V28.6857H27.9468V29.3107ZM29.3579 29.3107C29.7774 29.3107 30.1756 29.1301 30.4492 28.8137L29.9765 28.4048C29.8227 28.5827 29.5977 28.6857 29.3579 28.6857V29.3107ZM30.449 28.8139L32.2254 26.7646L31.7531 26.3553L29.9767 28.4046L30.449 28.8139ZM32.2252 26.7648C32.535 26.408 32.7235 25.9711 32.7711 25.5025L32.1493 25.4394C32.1147 25.7798 31.9785 26.0956 31.7532 26.3551L32.2252 26.7648ZM32.7711 25.5024L32.9372 23.863L32.3153 23.8L32.1493 25.4395L32.7711 25.5024ZM32.6262 24.144H33.2657V23.519H32.6262V24.144ZM33.2657 24.144C33.5559 24.144 33.8015 23.9269 33.8314 23.6353L33.2096 23.5717C33.2129 23.5399 33.2399 23.519 33.2657 23.519V24.144ZM23.363 21.9107L23.4724 23.624L24.0961 23.5842L23.9867 21.8708L23.363 21.9107ZM33.8324 23.6228L33.9596 21.5664L33.3358 21.5278L33.2086 23.5842L33.8324 23.6228ZM23.3524 21.722L23.3628 21.9082L23.9868 21.8733L23.9764 21.687L23.3524 21.722ZM24.0057 20.7528L24.0638 21.4103L24.6863 21.3553L24.6283 20.6978L24.0057 20.7528ZM24.3742 21.0703L23.9657 21.0714L23.9675 21.6964L24.3759 21.6953L24.3742 21.0703ZM33.4971 21.0734L32.9342 21.0723L32.933 21.6973L33.4959 21.6984L33.4971 21.0734ZM33.2449 21.4123L33.304 20.7418L32.6814 20.6869L32.6223 21.3574L33.2449 21.4123ZM23.9764 21.687C23.9767 21.6921 23.9726 21.6964 23.9675 21.6964L23.9657 21.0714C23.6126 21.0724 23.3326 21.3694 23.3524 21.722L23.9764 21.687ZM33.9596 21.5664C33.9762 21.2995 33.7645 21.0739 33.4971 21.0734L33.4959 21.6984C33.4034 21.6982 33.3301 21.6201 33.3358 21.5278L33.9596 21.5664Z" fill="#FBBC4C" mask="url(#path-10-inside-2_159_604646)"/>
<path d="M24.3242 20.813H33.0121L32.9639 21.3872L24.3733 21.3834L24.3242 20.813Z" fill="black"/>
<path d="M30.9058 18.4255C32.1601 19.1304 33.1024 19.8597 33.6226 20.4388C33.885 20.7308 34.0294 20.9733 34.0635 21.1474C34.0801 21.2318 34.0691 21.2916 34.0428 21.3343C34.0164 21.3771 33.9655 21.4173 33.8729 21.4442C33.678 21.5008 33.4599 21.4925 33.2258 21.4439C32.9916 21.3954 32.748 21.308 32.5038 21.2122C32.4357 21.1855 32.3673 21.1581 32.2992 21.1307C32.1256 21.061 31.9535 20.9919 31.7913 20.9374C31.5658 20.8616 31.3452 20.8087 31.1495 20.8232C30.8008 20.849 29.3811 20.8817 27.9258 20.8871C27.1989 20.8898 26.4647 20.8858 25.8527 20.8707C25.238 20.8556 24.7539 20.8294 24.5227 20.7895C24.3234 20.7551 24.1311 20.5875 23.9758 20.3179C23.8222 20.0512 23.7146 19.7004 23.6779 19.3339C23.6037 18.5927 23.8202 17.8401 24.4534 17.5655C26.3121 16.7593 28.4023 17.0187 30.9058 18.4255Z" fill="#34C759" stroke="#038745" stroke-width="0.1875"/>
<path d="M30.9058 18.4255C32.1601 19.1304 33.1024 19.8597 33.6226 20.4388C33.885 20.7308 34.0294 20.9733 34.0635 21.1474C34.0801 21.2318 34.0691 21.2916 34.0428 21.3343C34.0164 21.3771 33.9655 21.4173 33.8729 21.4442C33.678 21.5008 33.4599 21.4925 33.2258 21.4439C32.9916 21.3954 32.748 21.308 32.5038 21.2122C32.4357 21.1855 32.3673 21.1581 32.2992 21.1307C32.1256 21.061 31.9535 20.9919 31.7913 20.9374C31.5658 20.8616 31.3452 20.8087 31.1495 20.8232C30.8008 20.849 29.3811 20.8817 27.9258 20.8871C27.1989 20.8898 26.4647 20.8858 25.8527 20.8707C25.238 20.8556 24.7539 20.8294 24.5227 20.7895C24.3234 20.7551 24.1311 20.5875 23.9758 20.3179C23.8222 20.0512 23.7146 19.7004 23.6779 19.3339C23.6037 18.5927 23.8202 17.8401 24.4534 17.5655C26.3121 16.7593 28.4023 17.0187 30.9058 18.4255Z" fill="url(#paint0_linear_159_604646)" fill-opacity="0.77" stroke="#038745" stroke-width="0.1875"/>
<path d="M25.1895 18.8877C25.2819 18.9411 25.3389 19.0398 25.3389 19.1465V19.721C25.3389 19.7254 25.339 19.7298 25.3392 19.7341C25.3459 19.907 25.485 20.0462 25.659 20.0552V19.3314C25.659 19.2246 25.6021 19.1259 25.5096 19.0725L25.1895 18.8877V18.8877Z" fill="#038745" stroke="white" stroke-width="0.0480658"/>
<path d="M26.1482 18.8561C26.0558 18.9095 25.9418 18.9095 25.8494 18.8561L25.6786 18.7576L25.3519 18.5689C25.3481 18.5667 25.3442 18.5646 25.3404 18.5626C25.1873 18.482 24.9972 18.5329 24.9023 18.679L25.5292 19.041C25.6217 19.0944 25.7356 19.0944 25.8281 19.041L26.1482 18.8561H26.1482Z" fill="#038745" stroke="white" stroke-width="0.0480658"/>
<path d="M25.6953 19.7009C25.6953 19.5941 25.7523 19.4954 25.8447 19.4421L26.0155 19.3435L26.3422 19.1548C26.346 19.1527 26.3498 19.1504 26.3534 19.148C26.4998 19.0558 26.5508 18.8657 26.4716 18.7104L25.8447 19.0724C25.7523 19.1258 25.6953 19.2244 25.6953 19.3312V19.7009V19.7009Z" fill="#038745" stroke="white" stroke-width="0.0480658"/>
<path d="M26.1454 18.8561L26.4521 18.679C26.3572 18.5329 26.167 18.482 26.014 18.5626C26.0102 18.5646 26.0063 18.5667 26.0026 18.5689L25.6758 18.7576L25.8465 18.8561C25.939 18.9095 26.0529 18.9095 26.1454 18.8561Z" fill="#038745" stroke="white" stroke-width="0.0480658"/>
<path d="M25.6953 19.7011V20.0553C25.8693 20.0462 26.0085 19.907 26.0152 19.7342C26.0154 19.7298 26.0154 19.7255 26.0154 19.7211V19.3438L25.8447 19.4423C25.7523 19.4957 25.6953 19.5944 25.6953 19.7011Z" fill="#038745" stroke="white" stroke-width="0.0480658"/>
<path d="M25.1895 18.8876L24.8828 18.7104C24.8037 18.8657 24.8547 19.0558 25.001 19.1481C25.0047 19.1504 25.0084 19.1527 25.0122 19.1548L25.339 19.3435V19.1464C25.339 19.0396 25.282 18.9409 25.1896 18.8876H25.1895Z" fill="#038745" stroke="white" stroke-width="0.0480658"/>
<defs>
<linearGradient id="paint0_linear_159_604646" x1="32.0717" y1="17.6447" x2="30.8842" y2="21.5197" gradientUnits="userSpaceOnUse">
<stop stop-color="#B4FEC7"/>
<stop offset="0.5" stop-color="#34C759"/>
<stop offset="1" stop-color="#19612B"/>
</linearGradient>
</defs>
</svg>
