<svg width="58" height="58" viewBox="0 0 58 58" fill="none" xmlns="http://www.w3.org/2000/svg">
<circle cx="29" cy="29" r="26.4444" stroke="white" stroke-width="4.88889"/>
<circle cx="29" cy="29" r="26.037" fill="#0F5CCF" stroke="#027DA3" stroke-width="4.07407"/>
<circle cx="29" cy="29" r="21.963" fill="#32ADE6" stroke="white" stroke-width="4.07407"/>
<rect x="18.25" y="18.2502" width="21.5" height="20.5625" rx="2.15625" fill="url(#paint0_linear_213_208507)"/>
<rect x="18.25" y="18.2502" width="21.5" height="20.5625" rx="2.15625" fill="url(#paint1_linear_213_208507)" fill-opacity="0.4"/>
<rect x="18.25" y="18.2502" width="21.5" height="20.5625" rx="2.15625" stroke="white" stroke-width="1.5"/>
<mask id="path-5-inside-1_213_208507" fill="white">
<path d="M19 20.3752C19 19.6159 19.6156 19.0002 20.375 19.0002H37.625C38.3844 19.0002 39 19.6159 39 20.3752V25.4787H20.375C19.6156 25.4787 19 24.8631 19 24.1037V20.3752Z"/>
</mask>
<path d="M18.875 20.0002C18.875 19.1718 19.5466 18.5002 20.375 18.5002H37.625C38.6605 18.5002 39.5 19.3397 39.5 20.3752H38.5C38.5 19.892 38.1082 19.5002 37.625 19.5002H20.375C19.6846 19.5002 19.125 19.892 19.125 20.3752L18.875 20.0002ZM39.5 25.6037H20.375C19.5466 25.6037 18.875 24.9322 18.875 24.1037H19.125C19.125 24.7941 19.6846 25.3537 20.375 25.3537H38.5L39.5 25.6037ZM20.375 25.6037C19.5466 25.6037 18.875 24.9322 18.875 24.1037V20.0002C18.875 19.1718 19.5466 18.5002 20.375 18.5002V19.5002C19.6846 19.5002 19.125 19.892 19.125 20.3752V24.1037C19.125 24.7941 19.6846 25.3537 20.375 25.3537V25.6037ZM37.625 18.5002C38.6605 18.5002 39.5 19.3397 39.5 20.3752V25.6037L38.5 25.3537V20.3752C38.5 19.892 38.1082 19.5002 37.625 19.5002V18.5002Z" fill="url(#paint2_linear_213_208507)" mask="url(#path-5-inside-1_213_208507)"/>
<path d="M18.875 20.0002C18.875 19.1718 19.5466 18.5002 20.375 18.5002H37.625C38.6605 18.5002 39.5 19.3397 39.5 20.3752H38.5C38.5 19.892 38.1082 19.5002 37.625 19.5002H20.375C19.6846 19.5002 19.125 19.892 19.125 20.3752L18.875 20.0002ZM39.5 25.6037H20.375C19.5466 25.6037 18.875 24.9322 18.875 24.1037H19.125C19.125 24.7941 19.6846 25.3537 20.375 25.3537H38.5L39.5 25.6037ZM20.375 25.6037C19.5466 25.6037 18.875 24.9322 18.875 24.1037V20.0002C18.875 19.1718 19.5466 18.5002 20.375 18.5002V19.5002C19.6846 19.5002 19.125 19.892 19.125 20.3752V24.1037C19.125 24.7941 19.6846 25.3537 20.375 25.3537V25.6037ZM37.625 18.5002C38.6605 18.5002 39.5 19.3397 39.5 20.3752V25.6037L38.5 25.3537V20.3752C38.5 19.892 38.1082 19.5002 37.625 19.5002V18.5002Z" fill="url(#paint3_linear_213_208507)" fill-opacity="0.75" mask="url(#path-5-inside-1_213_208507)"/>
<mask id="path-7-inside-2_213_208507" fill="white">
<path d="M19 20.4065C19 19.6298 19.6296 19.0002 20.4062 19.0002H37.5938C38.3704 19.0002 39 19.6298 39 20.4065V25.4787H19V20.4065Z"/>
</mask>
<path d="M39 25.4787V25.8343H39.3556V25.4787H39ZM19 25.4787H18.6444V25.8343H19V25.4787ZM20.4062 19.3558H37.5938V18.6447H20.4062V19.3558ZM38.6444 20.4065V25.4787H39.3556V20.4065H38.6444ZM39 25.1232H19V25.8343H39V25.1232ZM19.3556 25.4787V20.4065H18.6444V25.4787H19.3556ZM37.5938 19.3558C38.174 19.3558 38.6444 19.8262 38.6444 20.4065H39.3556C39.3556 19.4335 38.5668 18.6447 37.5938 18.6447V19.3558ZM20.4062 18.6447C19.4332 18.6447 18.6444 19.4335 18.6444 20.4065H19.3556C19.3556 19.8262 19.826 19.3558 20.4062 19.3558V18.6447Z" fill="#027DA3" mask="url(#path-7-inside-2_213_208507)"/>
<rect x="27.567" y="21.2286" width="2.86667" height="2.02222" rx="0.288889" fill="white" stroke="white" stroke-width="0.0222222"/>
<path d="M29.655 21.262H30.1439C30.2851 21.262 30.3995 21.3764 30.3995 21.5175V21.8453H29.655V21.262Z" fill="#0F5CCF" stroke="#0F5CCF" stroke-width="0.0444445"/>
<mask id="path-11-inside-3_213_208507" fill="white">
<path fill-rule="evenodd" clip-rule="evenodd" d="M29.6087 21.2397H29.2031V23.2398H29.4761C29.4783 23.2398 29.4806 23.2399 29.4829 23.2399H30.0995C30.2529 23.2399 30.3773 23.1155 30.3773 22.9621V21.7345C30.3773 21.6086 30.2736 21.5065 30.1477 21.5065C30.0591 21.5065 29.9778 21.4542 29.9419 21.3732C29.906 21.2922 29.8257 21.2399 29.7371 21.2399H29.6087V21.2397Z"/>
</mask>
<path fill-rule="evenodd" clip-rule="evenodd" d="M29.6087 21.2397H29.2031V23.2398H29.4761C29.4783 23.2398 29.4806 23.2399 29.4829 23.2399H30.0995C30.2529 23.2399 30.3773 23.1155 30.3773 22.9621V21.7345C30.3773 21.6086 30.2736 21.5065 30.1477 21.5065C30.0591 21.5065 29.9778 21.4542 29.9419 21.3732C29.906 21.2922 29.8257 21.2399 29.7371 21.2399H29.6087V21.2397Z" fill="#34C759"/>
<path d="M29.2031 21.2397V21.1953H29.1587V21.2397H29.2031ZM29.6087 21.2397H29.6531V21.1953H29.6087V21.2397ZM29.2031 23.2398H29.1587V23.2842H29.2031V23.2398ZM29.4761 23.2398L29.4771 23.1953H29.4761V23.2398ZM29.9419 21.3732L29.9012 21.3912L29.9012 21.3912L29.9419 21.3732ZM29.6087 21.2399H29.5642V21.2844H29.6087V21.2399ZM29.2031 21.2842H29.6087V21.1953H29.2031V21.2842ZM29.2476 23.2398V21.2397H29.1587V23.2398H29.2476ZM29.4761 23.1953H29.2031V23.2842H29.4761V23.1953ZM29.475 23.2842C29.4776 23.2843 29.4802 23.2843 29.4829 23.2843V23.1954C29.4809 23.1954 29.479 23.1954 29.4771 23.1954L29.475 23.2842ZM29.4829 23.2843H30.0995V23.1954H29.4829V23.2843ZM30.0995 23.2843C30.2775 23.2843 30.4217 23.1401 30.4217 22.9621H30.3329C30.3329 23.091 30.2284 23.1954 30.0995 23.1954V23.2843ZM30.4217 22.9621V21.7345H30.3329V22.9621H30.4217ZM30.4217 21.7345C30.4217 21.5836 30.2978 21.4621 30.1477 21.4621V21.5509C30.2495 21.5509 30.3329 21.6335 30.3329 21.7345H30.4217ZM30.1477 21.4621C30.0764 21.4621 30.0112 21.42 29.9825 21.3552L29.9012 21.3912C29.9443 21.4885 30.0417 21.5509 30.1477 21.5509V21.4621ZM29.9825 21.3552C29.9395 21.2581 29.8433 21.1955 29.7371 21.1955V21.2844C29.8081 21.2844 29.8725 21.3263 29.9012 21.3912L29.9825 21.3552ZM29.7371 21.1955H29.6087V21.2844H29.7371V21.1955ZM29.5642 21.2397V21.2399H29.6531V21.2397H29.5642Z" fill="#34C759" mask="url(#path-11-inside-3_213_208507)"/>
<mask id="path-13-inside-4_213_208507" fill="white">
<path fill-rule="evenodd" clip-rule="evenodd" d="M29.1966 21.2397H28.791V21.4741C28.7897 21.4847 28.7891 21.4955 28.7891 21.5065V21.6288V22.9621C28.7891 22.9733 28.7897 22.9843 28.791 22.9952V23.2398H29.0601C29.0623 23.2398 29.0646 23.2399 29.0668 23.2399H29.7279C29.8814 23.2399 30.0057 23.1155 30.0057 22.9621V21.7614C30.0057 21.6206 29.8916 21.5065 29.7508 21.5065H29.7307C29.642 21.5065 29.5618 21.4542 29.5259 21.3732C29.49 21.2922 29.4097 21.2399 29.3211 21.2399H29.1966V21.2397Z"/>
</mask>
<path fill-rule="evenodd" clip-rule="evenodd" d="M29.1966 21.2397H28.791V21.4741C28.7897 21.4847 28.7891 21.4955 28.7891 21.5065V21.6288V22.9621C28.7891 22.9733 28.7897 22.9843 28.791 22.9952V23.2398H29.0601C29.0623 23.2398 29.0646 23.2399 29.0668 23.2399H29.7279C29.8814 23.2399 30.0057 23.1155 30.0057 22.9621V21.7614C30.0057 21.6206 29.8916 21.5065 29.7508 21.5065H29.7307C29.642 21.5065 29.5618 21.4542 29.5259 21.3732C29.49 21.2922 29.4097 21.2399 29.3211 21.2399H29.1966V21.2397Z" fill="#FFCC02"/>
<path d="M28.791 21.2397V21.1953H28.7466V21.2397H28.791ZM29.1966 21.2397H29.241V21.1953H29.1966V21.2397ZM28.791 21.4741L28.8355 21.4795V21.4741H28.791ZM28.791 22.9952H28.8358L28.8351 22.99L28.791 22.9952ZM28.791 23.2398H28.7466V23.2842H28.791V23.2398ZM29.0601 23.2398L29.0611 23.1953H29.0601V23.2398ZM29.5259 21.3732L29.4852 21.3912L29.4852 21.3912L29.5259 21.3732ZM29.1966 21.2399H29.1521V21.2844H29.1966V21.2399ZM28.791 21.2842H29.1966V21.1953H28.791V21.2842ZM28.8355 21.4741V21.2397H28.7466V21.4741H28.8355ZM28.7469 21.4687C28.7454 21.4811 28.7446 21.4937 28.7446 21.5065H28.8335C28.8335 21.4973 28.8341 21.4883 28.8351 21.4794L28.7469 21.4687ZM28.7446 21.5065V21.6288H28.8335V21.5065H28.7446ZM28.7446 21.6288V22.9621H28.8335V21.6288H28.7446ZM28.7446 22.9621C28.7446 22.9751 28.7454 22.9879 28.7469 23.0004L28.8351 22.99C28.8341 22.9808 28.8335 22.9715 28.8335 22.9621H28.7446ZM28.8355 23.2398V22.9952H28.7466V23.2398H28.8355ZM29.0601 23.1953H28.791V23.2842H29.0601V23.1953ZM29.059 23.2842C29.0616 23.2843 29.0642 23.2843 29.0668 23.2843V23.1954C29.0649 23.1954 29.063 23.1954 29.0611 23.1954L29.059 23.2842ZM29.0668 23.2843H29.7279V23.1954H29.0668V23.2843ZM29.7279 23.2843C29.9059 23.2843 30.0502 23.1401 30.0502 22.9621H29.9613C29.9613 23.091 29.8568 23.1954 29.7279 23.1954V23.2843ZM30.0502 22.9621V21.7614H29.9613V22.9621H30.0502ZM30.0502 21.7614C30.0502 21.5961 29.9161 21.4621 29.7508 21.4621V21.5509C29.867 21.5509 29.9613 21.6452 29.9613 21.7614H30.0502ZM29.7508 21.4621H29.7307V21.5509H29.7508V21.4621ZM29.7307 21.4621C29.6596 21.4621 29.5953 21.4202 29.5665 21.3552L29.4852 21.3912C29.5282 21.4883 29.6245 21.5509 29.7307 21.5509V21.4621ZM29.5665 21.3552C29.5235 21.2581 29.4273 21.1955 29.3211 21.1955V21.2844C29.3921 21.2844 29.4565 21.3263 29.4852 21.3912L29.5665 21.3552ZM29.3211 21.1955H29.1966V21.2844H29.3211V21.1955ZM29.1521 21.2397V21.2399H29.241V21.2397H29.1521Z" fill="#FFCC02" mask="url(#path-13-inside-4_213_208507)"/>
<mask id="path-15-inside-5_213_208507" fill="white">
<path fill-rule="evenodd" clip-rule="evenodd" d="M28.7972 21.2397H28.3916V21.4835C28.391 21.4911 28.3906 21.4988 28.3906 21.5065V21.6288V22.9621C28.3906 22.97 28.391 22.9778 28.3916 22.9856V23.2398H28.6616C28.6639 23.2398 28.6661 23.2399 28.6684 23.2399H29.3295C29.4829 23.2399 29.6073 23.1155 29.6073 22.9621V21.7614C29.6073 21.6206 29.4932 21.5065 29.3524 21.5065H29.3322C29.2436 21.5065 29.1633 21.4542 29.1274 21.3732C29.0915 21.2922 29.0113 21.2399 28.9226 21.2399H28.7972V21.2397Z"/>
</mask>
<path fill-rule="evenodd" clip-rule="evenodd" d="M28.7972 21.2397H28.3916V21.4835C28.391 21.4911 28.3906 21.4988 28.3906 21.5065V21.6288V22.9621C28.3906 22.97 28.391 22.9778 28.3916 22.9856V23.2398H28.6616C28.6639 23.2398 28.6661 23.2399 28.6684 23.2399H29.3295C29.4829 23.2399 29.6073 23.1155 29.6073 22.9621V21.7614C29.6073 21.6206 29.4932 21.5065 29.3524 21.5065H29.3322C29.2436 21.5065 29.1633 21.4542 29.1274 21.3732C29.0915 21.2922 29.0113 21.2399 28.9226 21.2399H28.7972V21.2397Z" fill="#FF6F00"/>
<path d="M28.3916 21.2397V21.1953H28.3472V21.2397H28.3916ZM28.7972 21.2397H28.8416V21.1953H28.7972V21.2397ZM28.3916 21.4835L28.436 21.4873V21.4835H28.3916ZM28.3916 22.9856H28.4362L28.4359 22.9818L28.3916 22.9856ZM28.3916 23.2398H28.3472V23.2842H28.3916V23.2398ZM28.6616 23.2398L28.6627 23.1953H28.6616V23.2398ZM29.1274 21.3732L29.0868 21.3912L29.0868 21.3912L29.1274 21.3732ZM28.7972 21.2399H28.7527V21.2844H28.7972V21.2399ZM28.3916 21.2842H28.7972V21.1953H28.3916V21.2842ZM28.436 21.4835V21.2397H28.3472V21.4835H28.436ZM28.3473 21.4797C28.3466 21.4886 28.3462 21.4975 28.3462 21.5065H28.4351C28.4351 21.5 28.4353 21.4936 28.4359 21.4873L28.3473 21.4797ZM28.3462 21.5065V21.6288H28.4351V21.5065H28.3462ZM28.3462 21.6288V22.9621H28.4351V21.6288H28.3462ZM28.3462 22.9621C28.3462 22.9712 28.3466 22.9803 28.3473 22.9893L28.4359 22.9818C28.4353 22.9753 28.4351 22.9688 28.4351 22.9621H28.3462ZM28.436 23.2398V22.9856H28.3472V23.2398H28.436ZM28.6616 23.1953H28.3916V23.2842H28.6616V23.1953ZM28.6606 23.2842C28.6632 23.2843 28.6658 23.2843 28.6684 23.2843V23.1954C28.6665 23.1954 28.6646 23.1954 28.6627 23.1954L28.6606 23.2842ZM28.6684 23.2843H29.3295V23.1954H28.6684V23.2843ZM29.3295 23.2843C29.5075 23.2843 29.6517 23.1401 29.6517 22.9621H29.5628C29.5628 23.091 29.4584 23.1954 29.3295 23.1954V23.2843ZM29.6517 22.9621V21.7614H29.5628V22.9621H29.6517ZM29.6517 21.7614C29.6517 21.5961 29.5177 21.4621 29.3524 21.4621V21.5509C29.4686 21.5509 29.5628 21.6452 29.5628 21.7614H29.6517ZM29.3524 21.4621H29.3322V21.5509H29.3524V21.4621ZM29.3322 21.4621C29.2612 21.4621 29.1968 21.4202 29.1681 21.3552L29.0868 21.3912C29.1298 21.4883 29.226 21.5509 29.3322 21.5509V21.4621ZM29.1681 21.3552C29.1251 21.2581 29.0288 21.1955 28.9226 21.1955V21.2844C28.9937 21.2844 29.058 21.3263 29.0868 21.3912L29.1681 21.3552ZM28.9226 21.1955H28.7972V21.2844H28.9226V21.1955ZM28.7527 21.2397V21.2399H28.8416V21.2397H28.7527Z" fill="#FF6F00" mask="url(#path-15-inside-5_213_208507)"/>
<mask id="path-17-inside-6_213_208507" fill="white">
<path fill-rule="evenodd" clip-rule="evenodd" d="M28.3899 21.2397H27.9844V21.5066V21.6289V22.9622V23.2398H28.2523C28.2556 23.2399 28.2588 23.24 28.2622 23.24H28.9233C29.0767 23.24 29.201 23.1156 29.201 22.9622V21.7615C29.201 21.6207 29.0869 21.5066 28.9461 21.5066H28.926C28.8374 21.5066 28.7571 21.4543 28.7212 21.3733C28.6853 21.2922 28.605 21.24 28.5164 21.24H28.3899V21.2397Z"/>
</mask>
<path fill-rule="evenodd" clip-rule="evenodd" d="M28.3899 21.2397H27.9844V21.5066V21.6289V22.9622V23.2398H28.2523C28.2556 23.2399 28.2588 23.24 28.2622 23.24H28.9233C29.0767 23.24 29.201 23.1156 29.201 22.9622V21.7615C29.201 21.6207 29.0869 21.5066 28.9461 21.5066H28.926C28.8374 21.5066 28.7571 21.4543 28.7212 21.3733C28.6853 21.2922 28.605 21.24 28.5164 21.24H28.3899V21.2397Z" fill="#FF2F2F"/>
<path d="M27.9844 21.2397V21.1953H27.9399V21.2397H27.9844ZM28.3899 21.2397H28.4344V21.1953H28.3899V21.2397ZM27.9844 23.2398H27.9399V23.2842H27.9844V23.2398ZM28.2523 23.2398L28.2538 23.1953H28.2523V23.2398ZM28.7212 21.3733L28.7618 21.3553L28.7212 21.3733ZM28.3899 21.24H28.3455V21.2844H28.3899V21.24ZM27.9844 21.2842H28.3899V21.1953H27.9844V21.2842ZM28.0288 21.5066V21.2397H27.9399V21.5066H28.0288ZM27.9399 21.5066V21.6289H28.0288V21.5066H27.9399ZM27.9399 21.6289V22.9622H28.0288V21.6289H27.9399ZM28.0288 23.2398V22.9622H27.9399V23.2398H28.0288ZM28.2523 23.1953H27.9844V23.2842H28.2523V23.1953ZM28.2507 23.2842C28.2545 23.2843 28.2583 23.2844 28.2622 23.2844V23.1955C28.2594 23.1955 28.2566 23.1955 28.2538 23.1954L28.2507 23.2842ZM28.2622 23.2844H28.9233V23.1955H28.2622V23.2844ZM28.9233 23.2844C29.1012 23.2844 29.2455 23.1401 29.2455 22.9622H29.1566C29.1566 23.0911 29.0521 23.1955 28.9233 23.1955V23.2844ZM29.2455 22.9622V21.7615H29.1566V22.9622H29.2455ZM29.2455 21.7615C29.2455 21.5962 29.1115 21.4621 28.9461 21.4621V21.551C29.0624 21.551 29.1566 21.6453 29.1566 21.7615H29.2455ZM28.9461 21.4621H28.926V21.551H28.9461V21.4621ZM28.926 21.4621C28.855 21.4621 28.7906 21.4203 28.7618 21.3553L28.6805 21.3913C28.7236 21.4884 28.8198 21.551 28.926 21.551V21.4621ZM28.7618 21.3553C28.7188 21.2582 28.6226 21.1955 28.5164 21.1955V21.2844C28.5874 21.2844 28.6518 21.3263 28.6805 21.3913L28.7618 21.3553ZM28.5164 21.1955H28.3899V21.2844H28.5164V21.1955ZM28.3455 21.2397V21.24H28.4344V21.2397H28.3455Z" fill="#FF2F2F" mask="url(#path-17-inside-6_213_208507)"/>
<mask id="path-19-inside-7_213_208507" fill="white">
<path fill-rule="evenodd" clip-rule="evenodd" d="M28.3149 21.3733C28.279 21.2922 28.1988 21.24 28.1101 21.24H27.8447C27.6975 21.24 27.5781 21.3593 27.5781 21.5066V21.6289V22.9622C27.5781 23.1156 27.7025 23.2399 27.8559 23.2399H30.1448C30.2982 23.2399 30.4226 23.1156 30.4226 22.9622V21.7843C30.4226 21.6309 30.2982 21.5066 30.1448 21.5066H28.5197C28.4311 21.5066 28.3508 21.4543 28.3149 21.3733Z"/>
</mask>
<path fill-rule="evenodd" clip-rule="evenodd" d="M28.3149 21.3733C28.279 21.2922 28.1988 21.24 28.1101 21.24H27.8447C27.6975 21.24 27.5781 21.3593 27.5781 21.5066V21.6289V22.9622C27.5781 23.1156 27.7025 23.2399 27.8559 23.2399H30.1448C30.2982 23.2399 30.4226 23.1156 30.4226 22.9622V21.7843C30.4226 21.6309 30.2982 21.5066 30.1448 21.5066H28.5197C28.4311 21.5066 28.3508 21.4543 28.3149 21.3733Z" fill="white"/>
<path d="M27.8447 21.2844H28.1101V21.1955H27.8447V21.2844ZM27.6226 21.6289V21.5066H27.5337V21.6289H27.6226ZM27.6226 22.9622V21.6289H27.5337V22.9622H27.6226ZM30.1448 23.1955H27.8559V23.2844H30.1448V23.1955ZM30.3781 21.7843V22.9622H30.467V21.7843H30.3781ZM28.5197 21.551H30.1448V21.4621H28.5197V21.551ZM28.5197 21.4621C28.4487 21.4621 28.3843 21.4202 28.3556 21.3553L28.2743 21.3913C28.3173 21.4884 28.4135 21.551 28.5197 21.551V21.4621ZM27.5337 22.9622C27.5337 23.1401 27.6779 23.2844 27.8559 23.2844V23.1955C27.727 23.1955 27.6226 23.091 27.6226 22.9622H27.5337ZM30.467 21.7843C30.467 21.6064 30.3228 21.4621 30.1448 21.4621V21.551C30.2737 21.551 30.3781 21.6555 30.3781 21.7843H30.467ZM28.1101 21.2844C28.1812 21.2844 28.2455 21.3263 28.2743 21.3913L28.3556 21.3553C28.3126 21.2582 28.2163 21.1955 28.1101 21.1955V21.2844ZM30.1448 23.2844C30.3228 23.2844 30.467 23.1401 30.467 22.9622H30.3781C30.3781 23.091 30.2737 23.1955 30.1448 23.1955V23.2844ZM27.8447 21.1955C27.6729 21.1955 27.5337 21.3348 27.5337 21.5066H27.6226C27.6226 21.3839 27.722 21.2844 27.8447 21.2844V21.1955Z" fill="#027DA3" mask="url(#path-19-inside-7_213_208507)"/>
<mask id="path-21-inside-8_213_208507" fill="white">
<path d="M19 25.4785H39V31.7705H19V25.4785Z"/>
</mask>
<path d="M19 25.4785V25.3535H18.875V25.4785H19ZM39 25.4785H39.4375V25.3535H39V25.4785ZM39 31.7705V31.8955H39.4375V31.7705H39ZM19 31.7705H18.875V31.8955H19V31.7705ZM19 25.6035H39V25.3535H19V25.6035ZM38.5625 25.4785V31.7705H39.4375V25.4785H38.5625ZM39 31.6455H19V31.8955H39V31.6455ZM19.125 31.7705V25.4785H18.875V31.7705H19.125Z" fill="url(#paint4_linear_213_208507)" mask="url(#path-21-inside-8_213_208507)"/>
<path d="M19 25.4785V25.3535H18.875V25.4785H19ZM39 25.4785H39.4375V25.3535H39V25.4785ZM39 31.7705V31.8955H39.4375V31.7705H39ZM19 31.7705H18.875V31.8955H19V31.7705ZM19 25.6035H39V25.3535H19V25.6035ZM38.5625 25.4785V31.7705H39.4375V25.4785H38.5625ZM39 31.6455H19V31.8955H39V31.6455ZM19.125 31.7705V25.4785H18.875V31.7705H19.125Z" fill="url(#paint5_linear_213_208507)" fill-opacity="0.5" mask="url(#path-21-inside-8_213_208507)"/>
<mask id="path-23-inside-9_213_208507" fill="white">
<path d="M19 25.4785H39V31.7705H19V25.4785Z"/>
</mask>
<path d="M39 31.7705V32.1261H39.3556V31.7705H39ZM19 31.7705H18.6444V32.1261H19V31.7705ZM38.6444 25.4785V31.7705H39.3556V25.4785H38.6444ZM39 31.415H19V32.1261H39V31.415ZM19.3556 31.7705V25.4785H18.6444V31.7705H19.3556Z" fill="#027DA3" mask="url(#path-23-inside-9_213_208507)"/>
<rect x="27.567" y="27.6134" width="2.86667" height="2.02222" rx="0.288889" fill="white" stroke="white" stroke-width="0.0222222"/>
<path d="M29.655 27.6467H30.1439C30.2851 27.6467 30.3995 27.7612 30.3995 27.9023V28.2301H29.655V27.6467Z" fill="#0F5CCF" stroke="#0F5CCF" stroke-width="0.0444445"/>
<mask id="path-27-inside-10_213_208507" fill="white">
<path fill-rule="evenodd" clip-rule="evenodd" d="M29.6087 27.6245H29.2031V29.6246H29.4795C29.4806 29.6246 29.4817 29.6246 29.4829 29.6246H30.0995C30.2529 29.6246 30.3773 29.5002 30.3773 29.3468V28.1192C30.3773 27.9933 30.2736 27.8912 30.1477 27.8912C30.0591 27.8912 29.9778 27.839 29.9419 27.7579C29.906 27.6769 29.8257 27.6246 29.7371 27.6246H29.6087V27.6245Z"/>
</mask>
<path fill-rule="evenodd" clip-rule="evenodd" d="M29.6087 27.6245H29.2031V29.6246H29.4795C29.4806 29.6246 29.4817 29.6246 29.4829 29.6246H30.0995C30.2529 29.6246 30.3773 29.5002 30.3773 29.3468V28.1192C30.3773 27.9933 30.2736 27.8912 30.1477 27.8912C30.0591 27.8912 29.9778 27.839 29.9419 27.7579C29.906 27.6769 29.8257 27.6246 29.7371 27.6246H29.6087V27.6245Z" fill="#34C759"/>
<path d="M29.2031 27.6245V27.5801H29.1587V27.6245H29.2031ZM29.6087 27.6245H29.6531V27.5801H29.6087V27.6245ZM29.2031 29.6246H29.1587V29.669H29.2031V29.6246ZM29.4795 29.6246L29.48 29.5801H29.4795V29.6246ZM29.9419 27.7579L29.9012 27.7759L29.9012 27.7759L29.9419 27.7579ZM29.6087 27.6246H29.5642V27.6691H29.6087V27.6246ZM29.2031 27.669H29.6087V27.5801H29.2031V27.669ZM29.2476 29.6246V27.6245H29.1587V29.6246H29.2476ZM29.4795 29.5801H29.2031V29.669H29.4795V29.5801ZM29.479 29.669C29.4803 29.669 29.4816 29.669 29.4829 29.669V29.5801C29.4819 29.5801 29.481 29.5801 29.48 29.5801L29.479 29.669ZM29.4829 29.669H30.0995V29.5801H29.4829V29.669ZM30.0995 29.669C30.2775 29.669 30.4217 29.5248 30.4217 29.3468H30.3329C30.3329 29.4757 30.2284 29.5801 30.0995 29.5801V29.669ZM30.4217 29.3468V28.1192H30.3329V29.3468H30.4217ZM30.4217 28.1192C30.4217 27.9683 30.2978 27.8468 30.1477 27.8468V27.9356C30.2495 27.9356 30.3329 28.0182 30.3329 28.1192H30.4217ZM30.1477 27.8468C30.0764 27.8468 30.0112 27.8047 29.9825 27.7399L29.9012 27.7759C29.9443 27.8732 30.0417 27.9356 30.1477 27.9356V27.8468ZM29.9825 27.7399C29.9395 27.6428 29.8433 27.5802 29.7371 27.5802V27.6691C29.8081 27.6691 29.8725 27.711 29.9012 27.7759L29.9825 27.7399ZM29.7371 27.5802H29.6087V27.6691H29.7371V27.5802ZM29.5642 27.6245V27.6246H29.6531V27.6245H29.5642Z" fill="#34C759" mask="url(#path-27-inside-10_213_208507)"/>
<mask id="path-29-inside-11_213_208507" fill="white">
<path fill-rule="evenodd" clip-rule="evenodd" d="M29.1966 27.6245H28.791V27.8588C28.7897 27.8694 28.7891 27.8802 28.7891 27.8912V28.0135V29.3468C28.7891 29.358 28.7897 29.3691 28.791 29.3799V29.6246H29.0635C29.0646 29.6246 29.0657 29.6246 29.0668 29.6246H29.7279C29.8814 29.6246 30.0057 29.5002 30.0057 29.3468V28.1461C30.0057 28.0053 29.8916 27.8912 29.7508 27.8912H29.7307C29.642 27.8912 29.5618 27.839 29.5259 27.7579C29.49 27.6769 29.4097 27.6246 29.3211 27.6246H29.1966V27.6245Z"/>
</mask>
<path fill-rule="evenodd" clip-rule="evenodd" d="M29.1966 27.6245H28.791V27.8588C28.7897 27.8694 28.7891 27.8802 28.7891 27.8912V28.0135V29.3468C28.7891 29.358 28.7897 29.3691 28.791 29.3799V29.6246H29.0635C29.0646 29.6246 29.0657 29.6246 29.0668 29.6246H29.7279C29.8814 29.6246 30.0057 29.5002 30.0057 29.3468V28.1461C30.0057 28.0053 29.8916 27.8912 29.7508 27.8912H29.7307C29.642 27.8912 29.5618 27.839 29.5259 27.7579C29.49 27.6769 29.4097 27.6246 29.3211 27.6246H29.1966V27.6245Z" fill="#FFCC02"/>
<path d="M28.791 27.6245V27.5801H28.7466V27.6245H28.791ZM29.1966 27.6245H29.241V27.5801H29.1966V27.6245ZM28.791 27.8588L28.8355 27.8642V27.8588H28.791ZM28.791 29.3799H28.8358L28.8351 29.3747L28.791 29.3799ZM28.791 29.6246H28.7466V29.669H28.791V29.6246ZM29.0635 29.6246L29.064 29.5801H29.0635V29.6246ZM29.5259 27.7579L29.4852 27.7759L29.4852 27.7759L29.5259 27.7579ZM29.1966 27.6246H29.1521V27.6691H29.1966V27.6246ZM28.791 27.669H29.1966V27.5801H28.791V27.669ZM28.8355 27.8588V27.6245H28.7466V27.8588H28.8355ZM28.7469 27.8534C28.7454 27.8658 28.7446 27.8784 28.7446 27.8912H28.8335C28.8335 27.882 28.8341 27.873 28.8351 27.8641L28.7469 27.8534ZM28.7446 27.8912V28.0135H28.8335V27.8912H28.7446ZM28.7446 28.0135V29.3468H28.8335V28.0135H28.7446ZM28.7446 29.3468C28.7446 29.3598 28.7454 29.3726 28.7469 29.3852L28.8351 29.3747C28.8341 29.3655 28.8335 29.3562 28.8335 29.3468H28.7446ZM28.8355 29.6246V29.3799H28.7466V29.6246H28.8355ZM29.0635 29.5801H28.791V29.669H29.0635V29.5801ZM29.0629 29.669C29.0642 29.669 29.0655 29.669 29.0668 29.669V29.5801C29.0659 29.5801 29.0649 29.5801 29.064 29.5801L29.0629 29.669ZM29.0668 29.669H29.7279V29.5801H29.0668V29.669ZM29.7279 29.669C29.9059 29.669 30.0502 29.5248 30.0502 29.3468H29.9613C29.9613 29.4757 29.8568 29.5801 29.7279 29.5801V29.669ZM30.0502 29.3468V28.1461H29.9613V29.3468H30.0502ZM30.0502 28.1461C30.0502 27.9808 29.9161 27.8468 29.7508 27.8468V27.9356C29.867 27.9356 29.9613 28.0299 29.9613 28.1461H30.0502ZM29.7508 27.8468H29.7307V27.9356H29.7508V27.8468ZM29.7307 27.8468C29.6596 27.8468 29.5953 27.8049 29.5665 27.7399L29.4852 27.7759C29.5282 27.873 29.6245 27.9356 29.7307 27.9356V27.8468ZM29.5665 27.7399C29.5235 27.6428 29.4273 27.5802 29.3211 27.5802V27.6691C29.3921 27.6691 29.4565 27.711 29.4852 27.7759L29.5665 27.7399ZM29.3211 27.5802H29.1966V27.6691H29.3211V27.5802ZM29.1521 27.6245V27.6246H29.241V27.6245H29.1521Z" fill="#FFCC02" mask="url(#path-29-inside-11_213_208507)"/>
<mask id="path-31-inside-12_213_208507" fill="white">
<path fill-rule="evenodd" clip-rule="evenodd" d="M28.7972 27.6245H28.3916V27.8682C28.391 27.8758 28.3906 27.8835 28.3906 27.8912V28.0135V29.3468C28.3906 29.3547 28.391 29.3625 28.3916 29.3703V29.6246H28.665C28.6662 29.6246 28.6673 29.6246 28.6684 29.6246H29.3295C29.4829 29.6246 29.6073 29.5002 29.6073 29.3468V28.1461C29.6073 28.0053 29.4932 27.8912 29.3524 27.8912H29.3322C29.2436 27.8912 29.1633 27.839 29.1274 27.7579C29.0915 27.6769 29.0113 27.6246 28.9226 27.6246H28.7972V27.6245Z"/>
</mask>
<path fill-rule="evenodd" clip-rule="evenodd" d="M28.7972 27.6245H28.3916V27.8682C28.391 27.8758 28.3906 27.8835 28.3906 27.8912V28.0135V29.3468C28.3906 29.3547 28.391 29.3625 28.3916 29.3703V29.6246H28.665C28.6662 29.6246 28.6673 29.6246 28.6684 29.6246H29.3295C29.4829 29.6246 29.6073 29.5002 29.6073 29.3468V28.1461C29.6073 28.0053 29.4932 27.8912 29.3524 27.8912H29.3322C29.2436 27.8912 29.1633 27.839 29.1274 27.7579C29.0915 27.6769 29.0113 27.6246 28.9226 27.6246H28.7972V27.6245Z" fill="#FF6F00"/>
<path d="M28.3916 27.6245V27.5801H28.3472V27.6245H28.3916ZM28.7972 27.6245H28.8416V27.5801H28.7972V27.6245ZM28.3916 27.8682L28.436 27.872V27.8682H28.3916ZM28.3916 29.3703H28.4362L28.4359 29.3666L28.3916 29.3703ZM28.3916 29.6246H28.3472V29.669H28.3916V29.6246ZM28.665 29.6246L28.6656 29.5801H28.665V29.6246ZM29.1274 27.7579L29.0868 27.7759L29.0868 27.7759L29.1274 27.7579ZM28.7972 27.6246H28.7527V27.6691H28.7972V27.6246ZM28.3916 27.669H28.7972V27.5801H28.3916V27.669ZM28.436 27.8682V27.6245H28.3472V27.8682H28.436ZM28.3473 27.8644C28.3466 27.8733 28.3462 27.8822 28.3462 27.8912H28.4351C28.4351 27.8847 28.4353 27.8783 28.4359 27.872L28.3473 27.8644ZM28.3462 27.8912V28.0135H28.4351V27.8912H28.3462ZM28.3462 28.0135V29.3468H28.4351V28.0135H28.3462ZM28.3462 29.3468C28.3462 29.3559 28.3466 29.365 28.3473 29.374L28.4359 29.3666C28.4353 29.36 28.4351 29.3535 28.4351 29.3468H28.3462ZM28.436 29.6246V29.3703H28.3472V29.6246H28.436ZM28.665 29.5801H28.3916V29.669H28.665V29.5801ZM28.6645 29.669C28.6658 29.669 28.6671 29.669 28.6684 29.669V29.5801C28.6675 29.5801 28.6665 29.5801 28.6656 29.5801L28.6645 29.669ZM28.6684 29.669H29.3295V29.5801H28.6684V29.669ZM29.3295 29.669C29.5075 29.669 29.6517 29.5248 29.6517 29.3468H29.5628C29.5628 29.4757 29.4584 29.5801 29.3295 29.5801V29.669ZM29.6517 29.3468V28.1461H29.5628V29.3468H29.6517ZM29.6517 28.1461C29.6517 27.9808 29.5177 27.8468 29.3524 27.8468V27.9356C29.4686 27.9356 29.5628 28.0299 29.5628 28.1461H29.6517ZM29.3524 27.8468H29.3322V27.9356H29.3524V27.8468ZM29.3322 27.8468C29.2612 27.8468 29.1968 27.8049 29.1681 27.7399L29.0868 27.7759C29.1298 27.873 29.226 27.9356 29.3322 27.9356V27.8468ZM29.1681 27.7399C29.1251 27.6428 29.0288 27.5802 28.9226 27.5802V27.6691C28.9937 27.6691 29.058 27.711 29.0868 27.7759L29.1681 27.7399ZM28.9226 27.5802H28.7972V27.6691H28.9226V27.5802ZM28.7527 27.6245V27.6246H28.8416V27.6245H28.7527Z" fill="#FF6F00" mask="url(#path-31-inside-12_213_208507)"/>
<mask id="path-33-inside-13_213_208507" fill="white">
<path fill-rule="evenodd" clip-rule="evenodd" d="M28.3899 27.6245H27.9844V27.8913V28.0137V29.3469V29.6246H28.2542C28.2568 29.6246 28.2595 29.6247 28.2622 29.6247H28.9233C29.0767 29.6247 29.201 29.5003 29.201 29.3469V28.1462C29.201 28.0054 29.0869 27.8913 28.9461 27.8913H28.9259C28.8373 27.8913 28.7571 27.839 28.7212 27.758C28.6853 27.677 28.605 27.6248 28.5164 27.6248H28.3899V27.6245Z"/>
</mask>
<path fill-rule="evenodd" clip-rule="evenodd" d="M28.3899 27.6245H27.9844V27.8913V28.0137V29.3469V29.6246H28.2542C28.2568 29.6246 28.2595 29.6247 28.2622 29.6247H28.9233C29.0767 29.6247 29.201 29.5003 29.201 29.3469V28.1462C29.201 28.0054 29.0869 27.8913 28.9461 27.8913H28.9259C28.8373 27.8913 28.7571 27.839 28.7212 27.758C28.6853 27.677 28.605 27.6248 28.5164 27.6248H28.3899V27.6245Z" fill="#FF2F2F"/>
<path d="M27.9844 27.6245V27.5801H27.9399V27.6245H27.9844ZM28.3899 27.6245H28.4344V27.5801H28.3899V27.6245ZM27.9844 29.6246H27.9399V29.669H27.9844V29.6246ZM28.2542 29.6246L28.2555 29.5801H28.2542V29.6246ZM28.7212 27.758L28.7618 27.74L28.7212 27.758ZM28.3899 27.6248H28.3455V27.6692H28.3899V27.6248ZM27.9844 27.669H28.3899V27.5801H27.9844V27.669ZM28.0288 27.8913V27.6245H27.9399V27.8913H28.0288ZM27.9399 27.8913V28.0137H28.0288V27.8913H27.9399ZM27.9399 28.0137V29.3469H28.0288V28.0137H27.9399ZM28.0288 29.6246V29.3469H27.9399V29.6246H28.0288ZM28.2542 29.5801H27.9844V29.669H28.2542V29.5801ZM28.253 29.669C28.256 29.6691 28.2591 29.6691 28.2622 29.6691V29.5802C28.2599 29.5802 28.2577 29.5802 28.2555 29.5801L28.253 29.669ZM28.2622 29.6691H28.9233V29.5802H28.2622V29.6691ZM28.9233 29.6691C29.1012 29.6691 29.2455 29.5248 29.2455 29.3469H29.1566C29.1566 29.4758 29.0521 29.5802 28.9233 29.5802V29.6691ZM29.2455 29.3469V28.1462H29.1566V29.3469H29.2455ZM29.2455 28.1462C29.2455 27.9809 29.1115 27.8469 28.9461 27.8469V27.9357C29.0624 27.9357 29.1566 28.03 29.1566 28.1462H29.2455ZM28.9461 27.8469H28.9259V27.9357H28.9461V27.8469ZM28.9259 27.8469C28.8549 27.8469 28.7906 27.805 28.7618 27.74L28.6805 27.776C28.7235 27.8731 28.8197 27.9357 28.9259 27.9357V27.8469ZM28.7618 27.74C28.7188 27.6429 28.6226 27.5803 28.5164 27.5803V27.6692C28.5874 27.6692 28.6518 27.7111 28.6805 27.776L28.7618 27.74ZM28.5164 27.5803H28.3899V27.6692H28.5164V27.5803ZM28.3455 27.6245V27.6248H28.4344V27.6245H28.3455Z" fill="#FF2F2F" mask="url(#path-33-inside-13_213_208507)"/>
<mask id="path-35-inside-14_213_208507" fill="white">
<path fill-rule="evenodd" clip-rule="evenodd" d="M28.3149 27.7578C28.279 27.6768 28.1988 27.6245 28.1101 27.6245H27.8447C27.6975 27.6245 27.5781 27.7439 27.5781 27.8911V28.0134V29.3467C27.5781 29.5001 27.7025 29.6245 27.8559 29.6245H30.1448C30.2982 29.6245 30.4226 29.5001 30.4226 29.3467V28.1689C30.4226 28.0154 30.2982 27.8911 30.1448 27.8911H28.5197C28.4311 27.8911 28.3508 27.8388 28.3149 27.7578Z"/>
</mask>
<path fill-rule="evenodd" clip-rule="evenodd" d="M28.3149 27.7578C28.279 27.6768 28.1988 27.6245 28.1101 27.6245H27.8447C27.6975 27.6245 27.5781 27.7439 27.5781 27.8911V28.0134V29.3467C27.5781 29.5001 27.7025 29.6245 27.8559 29.6245H30.1448C30.2982 29.6245 30.4226 29.5001 30.4226 29.3467V28.1689C30.4226 28.0154 30.2982 27.8911 30.1448 27.8911H28.5197C28.4311 27.8911 28.3508 27.8388 28.3149 27.7578Z" fill="white"/>
<path d="M27.8447 27.669H28.1101V27.5801H27.8447V27.669ZM27.6226 28.0134V27.8911H27.5337V28.0134H27.6226ZM27.6226 29.3467V28.0134H27.5337V29.3467H27.6226ZM30.1448 29.58H27.8559V29.6689H30.1448V29.58ZM30.3781 28.1689V29.3467H30.467V28.1689H30.3781ZM28.5197 27.9355H30.1448V27.8466H28.5197V27.9355ZM28.5197 27.8466C28.4487 27.8466 28.3843 27.8048 28.3556 27.7398L28.2743 27.7758C28.3173 27.8729 28.4135 27.9355 28.5197 27.9355V27.8466ZM27.5337 29.3467C27.5337 29.5246 27.6779 29.6689 27.8559 29.6689V29.58C27.727 29.58 27.6226 29.4755 27.6226 29.3467H27.5337ZM30.467 28.1689C30.467 27.9909 30.3228 27.8466 30.1448 27.8466V27.9355C30.2737 27.9355 30.3781 28.04 30.3781 28.1689H30.467ZM28.1101 27.669C28.1812 27.669 28.2455 27.7108 28.2743 27.7758L28.3556 27.7398C28.3126 27.6427 28.2163 27.5801 28.1101 27.5801V27.669ZM30.1448 29.6689C30.3228 29.6689 30.467 29.5246 30.467 29.3467H30.3781C30.3781 29.4755 30.2737 29.58 30.1448 29.58V29.6689ZM27.8447 27.5801C27.6729 27.5801 27.5337 27.7193 27.5337 27.8911H27.6226C27.6226 27.7684 27.722 27.669 27.8447 27.669V27.5801Z" fill="#027DA3" mask="url(#path-35-inside-14_213_208507)"/>
<mask id="path-37-inside-15_213_208507" fill="white">
<path d="M19 31.7705H39V36.4375C39 37.335 38.2725 38.0625 37.375 38.0625H20.625C19.7275 38.0625 19 37.335 19 36.4375V31.7705Z"/>
</mask>
<path d="M18.9375 31.6455H39.4375L38.5625 31.8955H19.0625L18.9375 31.6455ZM39.4375 36.4375C39.4375 37.3695 38.682 38.125 37.75 38.125H20.625C19.693 38.125 18.9375 37.3695 18.9375 36.4375H19.0625C19.0625 37.3005 19.7621 38 20.625 38H37.375C38.0308 38 38.5625 37.3005 38.5625 36.4375H39.4375ZM20.625 38.125C19.693 38.125 18.9375 37.3695 18.9375 36.4375V31.6455L19.0625 31.8955V36.4375C19.0625 37.3005 19.7621 38 20.625 38V38.125ZM39.4375 31.6455V36.4375C39.4375 37.3695 38.682 38.125 37.75 38.125L37.375 38C38.0308 38 38.5625 37.3005 38.5625 36.4375V31.8955L39.4375 31.6455Z" fill="url(#paint6_linear_213_208507)" mask="url(#path-37-inside-15_213_208507)"/>
<path d="M18.9375 31.6455H39.4375L38.5625 31.8955H19.0625L18.9375 31.6455ZM39.4375 36.4375C39.4375 37.3695 38.682 38.125 37.75 38.125H20.625C19.693 38.125 18.9375 37.3695 18.9375 36.4375H19.0625C19.0625 37.3005 19.7621 38 20.625 38H37.375C38.0308 38 38.5625 37.3005 38.5625 36.4375H39.4375ZM20.625 38.125C19.693 38.125 18.9375 37.3695 18.9375 36.4375V31.6455L19.0625 31.8955V36.4375C19.0625 37.3005 19.7621 38 20.625 38V38.125ZM39.4375 31.6455V36.4375C39.4375 37.3695 38.682 38.125 37.75 38.125L37.375 38C38.0308 38 38.5625 37.3005 38.5625 36.4375V31.8955L39.4375 31.6455Z" fill="url(#paint7_linear_213_208507)" fill-opacity="0.5" mask="url(#path-37-inside-15_213_208507)"/>
<mask id="path-39-inside-16_213_208507" fill="white">
<path d="M19 31.7705H39V36.6563C39 37.4329 38.3704 38.0625 37.5938 38.0625H20.4062C19.6296 38.0625 19 37.4329 19 36.6563V31.7705Z"/>
</mask>
<path d="M19 31.7705H39H19ZM39.3556 36.6563C39.3556 37.6293 38.5668 38.4181 37.5938 38.4181H20.4062C19.4332 38.4181 18.6444 37.6293 18.6444 36.6563H19.3556C19.3556 37.2365 19.826 37.707 20.4062 37.707H37.5938C38.174 37.707 38.6444 37.2365 38.6444 36.6563H39.3556ZM20.4062 38.4181C19.4332 38.4181 18.6444 37.6293 18.6444 36.6563V31.7705H19.3556V36.6563C19.3556 37.2365 19.826 37.707 20.4062 37.707V38.4181ZM39.3556 31.7705V36.6563C39.3556 37.6293 38.5668 38.4181 37.5938 38.4181V37.707C38.174 37.707 38.6444 37.2365 38.6444 36.6563V31.7705H39.3556Z" fill="#027DA3" mask="url(#path-39-inside-16_213_208507)"/>
<rect x="27.567" y="33.9054" width="2.86667" height="2.02223" rx="0.288889" fill="white" stroke="white" stroke-width="0.0222222"/>
<path d="M29.655 33.9387H30.1439C30.2851 33.9387 30.3995 34.0531 30.3995 34.1943V34.5221H29.655V33.9387Z" fill="#0F5CCF" stroke="#0F5CCF" stroke-width="0.0444445"/>
<mask id="path-43-inside-17_213_208507" fill="white">
<path fill-rule="evenodd" clip-rule="evenodd" d="M29.6087 33.9163H29.2031V35.9163H29.4761C29.4783 35.9164 29.4806 35.9164 29.4829 35.9164H30.0995C30.2529 35.9164 30.3773 35.792 30.3773 35.6386V34.411C30.3773 34.2851 30.2736 34.183 30.1477 34.183C30.0591 34.183 29.9778 34.1308 29.9419 34.0497C29.906 33.9687 29.8257 33.9164 29.7371 33.9164H29.6087V33.9163Z"/>
</mask>
<path fill-rule="evenodd" clip-rule="evenodd" d="M29.6087 33.9163H29.2031V35.9163H29.4761C29.4783 35.9164 29.4806 35.9164 29.4829 35.9164H30.0995C30.2529 35.9164 30.3773 35.792 30.3773 35.6386V34.411C30.3773 34.2851 30.2736 34.183 30.1477 34.183C30.0591 34.183 29.9778 34.1308 29.9419 34.0497C29.906 33.9687 29.8257 33.9164 29.7371 33.9164H29.6087V33.9163Z" fill="#34C759"/>
<path d="M29.2031 33.9163V33.8718H29.1587V33.9163H29.2031ZM29.6087 33.9163H29.6531V33.8718H29.6087V33.9163ZM29.2031 35.9163H29.1587V35.9608H29.2031V35.9163ZM29.4761 35.9163L29.4771 35.8719H29.4761V35.9163ZM29.6087 33.9164H29.5642V33.9609H29.6087V33.9164ZM29.2031 33.9607H29.6087V33.8718H29.2031V33.9607ZM29.2476 35.9163V33.9163H29.1587V35.9163H29.2476ZM29.4761 35.8719H29.2031V35.9608H29.4761V35.8719ZM29.475 35.9607C29.4776 35.9608 29.4802 35.9608 29.4829 35.9608V35.8719C29.4809 35.8719 29.479 35.8719 29.4771 35.8719L29.475 35.9607ZM29.4829 35.9608H30.0995V35.8719H29.4829V35.9608ZM30.0995 35.9608C30.2775 35.9608 30.4217 35.8166 30.4217 35.6386H30.3329C30.3329 35.7675 30.2284 35.8719 30.0995 35.8719V35.9608ZM30.4217 35.6386V34.411H30.3329V35.6386H30.4217ZM30.4217 34.411C30.4217 34.2601 30.2978 34.1386 30.1477 34.1386V34.2275C30.2495 34.2275 30.3329 34.31 30.3329 34.411H30.4217ZM30.1477 34.1386C30.0764 34.1386 30.0112 34.0965 29.9825 34.0317L29.9012 34.0677C29.9443 34.165 30.0417 34.2275 30.1477 34.2275V34.1386ZM29.9825 34.0317C29.9395 33.9346 29.8433 33.872 29.7371 33.872V33.9609C29.8081 33.9609 29.8725 34.0028 29.9012 34.0677L29.9825 34.0317ZM29.7371 33.872H29.6087V33.9609H29.7371V33.872ZM29.5642 33.9163V33.9164H29.6531V33.9163H29.5642Z" fill="#34C759" mask="url(#path-43-inside-17_213_208507)"/>
<mask id="path-45-inside-18_213_208507" fill="white">
<path fill-rule="evenodd" clip-rule="evenodd" d="M29.1966 33.9165H28.791V34.1507C28.7897 34.1613 28.7891 34.1721 28.7891 34.1831V34.3054V35.6387C28.7891 35.6499 28.7897 35.661 28.791 35.6718V35.9166H29.1966V35.9165H29.7279C29.8814 35.9165 30.0057 35.7921 30.0057 35.6387V34.438C30.0057 34.2972 29.8916 34.1831 29.7508 34.1831H29.7307C29.642 34.1831 29.5618 34.1309 29.5259 34.0498C29.49 33.9688 29.4097 33.9165 29.3211 33.9165H29.1966V33.9165Z"/>
</mask>
<path fill-rule="evenodd" clip-rule="evenodd" d="M29.1966 33.9165H28.791V34.1507C28.7897 34.1613 28.7891 34.1721 28.7891 34.1831V34.3054V35.6387C28.7891 35.6499 28.7897 35.661 28.791 35.6718V35.9166H29.1966V35.9165H29.7279C29.8814 35.9165 30.0057 35.7921 30.0057 35.6387V34.438C30.0057 34.2972 29.8916 34.1831 29.7508 34.1831H29.7307C29.642 34.1831 29.5618 34.1309 29.5259 34.0498C29.49 33.9688 29.4097 33.9165 29.3211 33.9165H29.1966V33.9165Z" fill="#FFCC02"/>
<path d="M28.791 33.9165V33.8721H28.7466V33.9165H28.791ZM29.1966 33.9165H29.241V33.8721H29.1966V33.9165ZM28.791 34.1507L28.8355 34.1561V34.1507H28.791ZM28.791 35.6718H28.8358L28.8351 35.6666L28.791 35.6718ZM28.791 35.9166H28.7466V35.961H28.791V35.9166ZM29.1966 35.9166V35.961H29.241V35.9166H29.1966ZM29.1966 35.9165V35.872H29.1521V35.9165H29.1966ZM29.1966 33.9165H29.1521V33.961H29.1966V33.9165ZM28.791 33.9609H29.1966V33.8721H28.791V33.9609ZM28.8355 34.1507V33.9165H28.7466V34.1507H28.8355ZM28.7469 34.1453C28.7454 34.1577 28.7446 34.1703 28.7446 34.1831H28.8335C28.8335 34.1739 28.8341 34.1649 28.8351 34.156L28.7469 34.1453ZM28.7446 34.1831V34.3054H28.8335V34.1831H28.7446ZM28.7446 34.3054V35.6387H28.8335V34.3054H28.7446ZM28.7446 35.6387C28.7446 35.6517 28.7454 35.6645 28.7469 35.6771L28.8351 35.6666C28.8341 35.6574 28.8335 35.6481 28.8335 35.6387H28.7446ZM28.8355 35.9166V35.6718H28.7466V35.9166H28.8355ZM29.1966 35.8721H28.791V35.961H29.1966V35.8721ZM29.1521 35.9165V35.9166H29.241V35.9165H29.1521ZM29.1966 35.9609H29.7279V35.872H29.1966V35.9609ZM29.7279 35.9609C29.9059 35.9609 30.0502 35.8167 30.0502 35.6387H29.9613C29.9613 35.7676 29.8568 35.872 29.7279 35.872V35.9609ZM30.0502 35.6387V34.438H29.9613V35.6387H30.0502ZM30.0502 34.438C30.0502 34.2727 29.9161 34.1387 29.7508 34.1387V34.2275C29.867 34.2275 29.9613 34.3218 29.9613 34.438H30.0502ZM29.7508 34.1387H29.7307V34.2275H29.7508V34.1387ZM29.7307 34.1387C29.6596 34.1387 29.5953 34.0968 29.5665 34.0318L29.4852 34.0678C29.5282 34.1649 29.6245 34.2275 29.7307 34.2275V34.1387ZM29.5665 34.0318C29.5235 33.9347 29.4273 33.8721 29.3211 33.8721V33.961C29.3921 33.961 29.4565 34.0029 29.4852 34.0678L29.5665 34.0318ZM29.3211 33.8721H29.1966V33.961H29.3211V33.8721ZM29.1521 33.9165V33.9165H29.241V33.9165H29.1521Z" fill="#FFCC02" mask="url(#path-45-inside-18_213_208507)"/>
<mask id="path-47-inside-19_213_208507" fill="white">
<path fill-rule="evenodd" clip-rule="evenodd" d="M28.7972 33.9165H28.3916V34.1601C28.391 34.1677 28.3906 34.1754 28.3906 34.1831V34.3054V35.6387C28.3906 35.6466 28.391 35.6544 28.3916 35.6622V35.9166H28.7972V35.9165H29.3295C29.4829 35.9165 29.6073 35.7921 29.6073 35.6387V34.438C29.6073 34.2972 29.4932 34.1831 29.3524 34.1831H29.3322C29.2436 34.1831 29.1633 34.1309 29.1274 34.0498C29.0915 33.9688 29.0113 33.9165 28.9226 33.9165H28.7972V33.9165Z"/>
</mask>
<path fill-rule="evenodd" clip-rule="evenodd" d="M28.7972 33.9165H28.3916V34.1601C28.391 34.1677 28.3906 34.1754 28.3906 34.1831V34.3054V35.6387C28.3906 35.6466 28.391 35.6544 28.3916 35.6622V35.9166H28.7972V35.9165H29.3295C29.4829 35.9165 29.6073 35.7921 29.6073 35.6387V34.438C29.6073 34.2972 29.4932 34.1831 29.3524 34.1831H29.3322C29.2436 34.1831 29.1633 34.1309 29.1274 34.0498C29.0915 33.9688 29.0113 33.9165 28.9226 33.9165H28.7972V33.9165Z" fill="#FF6F00"/>
<path d="M28.3916 33.9165V33.8721H28.3472V33.9165H28.3916ZM28.7972 33.9165H28.8416V33.8721H28.7972V33.9165ZM28.3916 34.1601L28.436 34.1639V34.1601H28.3916ZM28.3916 35.6622H28.4362L28.4359 35.6585L28.3916 35.6622ZM28.3916 35.9166H28.3472V35.961H28.3916V35.9166ZM28.7972 35.9166V35.961H28.8416V35.9166H28.7972ZM28.7972 35.9165V35.872H28.7527V35.9165H28.7972ZM28.7972 33.9165H28.7527V33.961H28.7972V33.9165ZM28.3916 33.9609H28.7972V33.8721H28.3916V33.9609ZM28.436 34.1601V33.9165H28.3472V34.1601H28.436ZM28.3473 34.1563C28.3466 34.1652 28.3462 34.1741 28.3462 34.1831H28.4351C28.4351 34.1766 28.4353 34.1702 28.4359 34.1639L28.3473 34.1563ZM28.3462 34.1831V34.3054H28.4351V34.1831H28.3462ZM28.3462 34.3054V35.6387H28.4351V34.3054H28.3462ZM28.3462 35.6387C28.3462 35.6478 28.3466 35.6569 28.3473 35.6659L28.4359 35.6585C28.4353 35.652 28.4351 35.6454 28.4351 35.6387H28.3462ZM28.436 35.9166V35.6622H28.3472V35.9166H28.436ZM28.7972 35.8721H28.3916V35.961H28.7972V35.8721ZM28.7527 35.9165V35.9166H28.8416V35.9165H28.7527ZM28.7972 35.9609H29.3295V35.872H28.7972V35.9609ZM29.3295 35.9609C29.5075 35.9609 29.6517 35.8167 29.6517 35.6387H29.5628C29.5628 35.7676 29.4584 35.872 29.3295 35.872V35.9609ZM29.6517 35.6387V34.438H29.5628V35.6387H29.6517ZM29.6517 34.438C29.6517 34.2727 29.5177 34.1387 29.3524 34.1387V34.2275C29.4686 34.2275 29.5628 34.3218 29.5628 34.438H29.6517ZM29.3524 34.1387H29.3322V34.2275H29.3524V34.1387ZM29.3322 34.1387C29.2612 34.1387 29.1968 34.0968 29.1681 34.0318L29.0868 34.0678C29.1298 34.1649 29.226 34.2275 29.3322 34.2275V34.1387ZM29.1681 34.0318C29.1251 33.9347 29.0288 33.8721 28.9226 33.8721V33.961C28.9937 33.961 29.058 34.0029 29.0868 34.0678L29.1681 34.0318ZM28.9226 33.8721H28.7972V33.961H28.9226V33.8721ZM28.7527 33.9165V33.9165H28.8416V33.9165H28.7527Z" fill="#FF6F00" mask="url(#path-47-inside-19_213_208507)"/>
<mask id="path-49-inside-20_213_208507" fill="white">
<path fill-rule="evenodd" clip-rule="evenodd" d="M28.3901 33.9165H27.9846V34.1728C27.9844 34.1762 27.9844 34.1797 27.9844 34.1831V34.3056V35.6387C27.9844 35.6422 27.9844 35.6457 27.9846 35.6492V35.9166H28.3901V35.9165H28.9233C29.0767 35.9165 29.201 35.7921 29.201 35.6387V34.4381C29.201 34.2973 29.0869 34.1831 28.9461 34.1831H28.9258C28.8373 34.1831 28.757 34.1309 28.7211 34.0499C28.6853 33.9689 28.605 33.9167 28.5165 33.9167H28.3901V33.9165Z"/>
</mask>
<path fill-rule="evenodd" clip-rule="evenodd" d="M28.3901 33.9165H27.9846V34.1728C27.9844 34.1762 27.9844 34.1797 27.9844 34.1831V34.3056V35.6387C27.9844 35.6422 27.9844 35.6457 27.9846 35.6492V35.9166H28.3901V35.9165H28.9233C29.0767 35.9165 29.201 35.7921 29.201 35.6387V34.4381C29.201 34.2973 29.0869 34.1831 28.9461 34.1831H28.9258C28.8373 34.1831 28.757 34.1309 28.7211 34.0499C28.6853 33.9689 28.605 33.9167 28.5165 33.9167H28.3901V33.9165Z" fill="#FF2F2F"/>
<path d="M27.9846 33.9165V33.8721H27.9401V33.9165H27.9846ZM28.3901 33.9165H28.4346V33.8721H28.3901V33.9165ZM27.9846 34.1728L28.029 34.1745V34.1728H27.9846ZM27.9846 35.6492H28.029L28.029 35.6476L27.9846 35.6492ZM27.9846 35.9166H27.9401V35.961H27.9846V35.9166ZM28.3901 35.9166V35.961H28.4346V35.9166H28.3901ZM28.3901 35.9165V35.872H28.3457V35.9165H28.3901ZM28.7211 34.0499L28.6805 34.0679L28.7211 34.0499ZM28.3901 33.9167H28.3457V33.9611H28.3901V33.9167ZM27.9846 33.9609H28.3901V33.8721H27.9846V33.9609ZM28.029 34.1728V33.9165H27.9401V34.1728H28.029ZM27.9402 34.1711C27.94 34.1751 27.9399 34.1791 27.9399 34.1831H28.0288C28.0288 34.1802 28.0289 34.1774 28.029 34.1745L27.9402 34.1711ZM27.9399 34.1831V34.3056H28.0288V34.1831H27.9399ZM27.9399 34.3056V35.6387H28.0288V34.3056H27.9399ZM27.9399 35.6387C27.9399 35.6428 27.94 35.6468 27.9402 35.6509L28.029 35.6476C28.0289 35.6446 28.0288 35.6417 28.0288 35.6387H27.9399ZM28.029 35.9166V35.6492H27.9401V35.9166H28.029ZM28.3901 35.8721H27.9846V35.961H28.3901V35.8721ZM28.3457 35.9165V35.9166H28.4346V35.9165H28.3457ZM28.3901 35.9609H28.9233V35.872H28.3901V35.9609ZM28.9233 35.9609C29.1012 35.9609 29.2455 35.8167 29.2455 35.6387H29.1566C29.1566 35.7676 29.0521 35.872 28.9233 35.872V35.9609ZM29.2455 35.6387V34.4381H29.1566V35.6387H29.2455ZM29.2455 34.4381C29.2455 34.2727 29.1114 34.1387 28.9461 34.1387V34.2276C29.0623 34.2276 29.1566 34.3218 29.1566 34.4381H29.2455ZM28.9461 34.1387H28.9258V34.2276H28.9461V34.1387ZM28.9258 34.1387C28.8548 34.1387 28.7905 34.0968 28.7618 34.0319L28.6805 34.0679C28.7235 34.165 28.8197 34.2276 28.9258 34.2276V34.1387ZM28.7618 34.0319C28.7188 33.9348 28.6226 33.8723 28.5165 33.8723V33.9611C28.5875 33.9611 28.6518 34.003 28.6805 34.0679L28.7618 34.0319ZM28.5165 33.8723H28.3901V33.9611H28.5165V33.8723ZM28.3457 33.9165V33.9167H28.4346V33.9165H28.3457Z" fill="#FF2F2F" mask="url(#path-49-inside-20_213_208507)"/>
<mask id="path-51-inside-21_213_208507" fill="white">
<path fill-rule="evenodd" clip-rule="evenodd" d="M28.3149 34.05C28.279 33.969 28.1988 33.9167 28.1101 33.9167H27.8447C27.6975 33.9167 27.5781 34.0361 27.5781 34.1833V34.3056V35.6389C27.5781 35.7923 27.7025 35.9167 27.8559 35.9167H30.1448C30.2982 35.9167 30.4226 35.7923 30.4226 35.6389V34.4611C30.4226 34.3077 30.2982 34.1833 30.1448 34.1833H28.5197C28.4311 34.1833 28.3508 34.1311 28.3149 34.05Z"/>
</mask>
<path fill-rule="evenodd" clip-rule="evenodd" d="M28.3149 34.05C28.279 33.969 28.1988 33.9167 28.1101 33.9167H27.8447C27.6975 33.9167 27.5781 34.0361 27.5781 34.1833V34.3056V35.6389C27.5781 35.7923 27.7025 35.9167 27.8559 35.9167H30.1448C30.2982 35.9167 30.4226 35.7923 30.4226 35.6389V34.4611C30.4226 34.3077 30.2982 34.1833 30.1448 34.1833H28.5197C28.4311 34.1833 28.3508 34.1311 28.3149 34.05Z" fill="white"/>
<path d="M27.8447 33.9612H28.1101V33.8723H27.8447V33.9612ZM27.6226 34.3056V34.1833H27.5337V34.3056H27.6226ZM27.6226 35.6389V34.3056H27.5337V35.6389H27.6226ZM30.1448 35.8722H27.8559V35.9611H30.1448V35.8722ZM30.3781 34.4611V35.6389H30.467V34.4611H30.3781ZM28.5197 34.2278H30.1448V34.1389H28.5197V34.2278ZM28.5197 34.1389C28.4487 34.1389 28.3843 34.097 28.3556 34.032L28.2743 34.068C28.3173 34.1651 28.4135 34.2278 28.5197 34.2278V34.1389ZM27.5337 35.6389C27.5337 35.8169 27.6779 35.9611 27.8559 35.9611V35.8722C27.727 35.8722 27.6226 35.7678 27.6226 35.6389H27.5337ZM30.467 34.4611C30.467 34.2831 30.3227 34.1389 30.1448 34.1389V34.2278C30.2737 34.2278 30.3781 34.3322 30.3781 34.4611H30.467ZM28.1101 33.9612C28.1812 33.9612 28.2455 34.0031 28.2743 34.068L28.3556 34.032C28.3126 33.9349 28.2163 33.8723 28.1101 33.8723V33.9612ZM30.1448 35.9611C30.3227 35.9611 30.467 35.8169 30.467 35.6389H30.3781C30.3781 35.7678 30.2737 35.8722 30.1448 35.8722V35.9611ZM27.8447 33.8723C27.6729 33.8723 27.5337 34.0115 27.5337 34.1833H27.6226C27.6226 34.0606 27.722 33.9612 27.8447 33.9612V33.8723Z" fill="#027DA3" mask="url(#path-51-inside-21_213_208507)"/>
<mask id="path-53-outside-22_213_208507" maskUnits="userSpaceOnUse" x="19" y="38.0625" width="6" height="3" fill="black">
<rect fill="white" x="19" y="38.0625" width="6" height="3"/>
<path d="M21 38.0625H22.875V38.3319C22.875 38.5283 22.7158 38.6875 22.5194 38.6875H21.3556C21.1592 38.6875 21 38.5283 21 38.3319V38.0625Z"/>
</mask>
<path d="M21 38.0625H22.875V38.3319C22.875 38.5283 22.7158 38.6875 22.5194 38.6875H21.3556C21.1592 38.6875 21 38.5283 21 38.3319V38.0625Z" fill="#32ADE6"/>
<path d="M21 38.0625H22.875H21ZM24.375 38.3319C24.375 39.3567 23.5442 40.1875 22.5194 40.1875H21.3556C20.3308 40.1875 19.5 39.3567 19.5 38.3319L22.5 38.0625H21.375L24.375 38.3319ZM21.3556 40.1875C20.3308 40.1875 19.5 39.3567 19.5 38.3319V38.0625H22.5L21.3556 40.1875ZM24.375 38.0625V38.3319C24.375 39.3567 23.5442 40.1875 22.5194 40.1875L21.375 38.0625H24.375Z" fill="white" mask="url(#path-53-outside-22_213_208507)"/>
<mask id="path-55-outside-23_213_208507" maskUnits="userSpaceOnUse" x="20" y="38.0625" width="4" height="1" fill="black">
<rect fill="white" x="20" y="38.0625" width="4" height="1"/>
<path d="M21 38.0625H22.875V38.3319C22.875 38.5283 22.7158 38.6875 22.5194 38.6875H21.3556C21.1592 38.6875 21 38.5283 21 38.3319V38.0625Z"/>
</mask>
<path d="M21 38.0625H22.875V38.3319C22.875 38.5283 22.7158 38.6875 22.5194 38.6875H21.3556C21.1592 38.6875 21 38.5283 21 38.3319V38.0625Z" fill="#32ADE6"/>
<path d="M21 38.0625H22.875H21ZM23.1875 38.3319C23.1875 38.7009 22.8884 39 22.5194 39H21.3556C20.9866 39 20.6875 38.7009 20.6875 38.3319L21.3125 38.3319C21.3125 38.3557 21.3318 38.375 21.3556 38.375H22.5194C22.5432 38.375 22.5625 38.3557 22.5625 38.3319L23.1875 38.3319ZM21.3556 39C20.9866 39 20.6875 38.7009 20.6875 38.3319V38.0625H21.3125V38.3319C21.3125 38.3557 21.3318 38.375 21.3556 38.375L21.3556 39ZM23.1875 38.0625V38.3319C23.1875 38.7009 22.8884 39 22.5194 39V38.375C22.5432 38.375 22.5625 38.3557 22.5625 38.3319V38.0625H23.1875Z" fill="#027DA3" mask="url(#path-55-outside-23_213_208507)"/>
<mask id="path-57-outside-24_213_208507" maskUnits="userSpaceOnUse" x="33.125" y="38.0625" width="6" height="3" fill="black">
<rect fill="white" x="33.125" y="38.0625" width="6" height="3"/>
<path d="M35.125 38.0625H37V38.3319C37 38.5283 36.8408 38.6875 36.6444 38.6875H35.4806C35.2842 38.6875 35.125 38.5283 35.125 38.3319V38.0625Z"/>
</mask>
<path d="M35.125 38.0625H37V38.3319C37 38.5283 36.8408 38.6875 36.6444 38.6875H35.4806C35.2842 38.6875 35.125 38.5283 35.125 38.3319V38.0625Z" fill="#32ADE6"/>
<path d="M35.125 38.0625H37H35.125ZM38.5 38.3319C38.5 39.3567 37.6692 40.1875 36.6444 40.1875H35.4806C34.4558 40.1875 33.625 39.3567 33.625 38.3319L36.625 38.0625H35.5L38.5 38.3319ZM35.4806 40.1875C34.4558 40.1875 33.625 39.3567 33.625 38.3319V38.0625H36.625L35.4806 40.1875ZM38.5 38.0625V38.3319C38.5 39.3567 37.6692 40.1875 36.6444 40.1875L35.5 38.0625H38.5Z" fill="white" mask="url(#path-57-outside-24_213_208507)"/>
<mask id="path-59-outside-25_213_208507" maskUnits="userSpaceOnUse" x="34.125" y="38.0625" width="4" height="1" fill="black">
<rect fill="white" x="34.125" y="38.0625" width="4" height="1"/>
<path d="M35.125 38.0625H37V38.3319C37 38.5283 36.8408 38.6875 36.6444 38.6875H35.4806C35.2842 38.6875 35.125 38.5283 35.125 38.3319V38.0625Z"/>
</mask>
<path d="M35.125 38.0625H37V38.3319C37 38.5283 36.8408 38.6875 36.6444 38.6875H35.4806C35.2842 38.6875 35.125 38.5283 35.125 38.3319V38.0625Z" fill="#32ADE6"/>
<path d="M35.125 38.0625H37H35.125ZM37.3125 38.3319C37.3125 38.7009 37.0134 39 36.6444 39H35.4806C35.1116 39 34.8125 38.7009 34.8125 38.3319L35.4375 38.3319C35.4375 38.3557 35.4568 38.375 35.4806 38.375H36.6444C36.6682 38.375 36.6875 38.3557 36.6875 38.3319L37.3125 38.3319ZM35.4806 39C35.1116 39 34.8125 38.7009 34.8125 38.3319V38.0625H35.4375V38.3319C35.4375 38.3557 35.4568 38.375 35.4806 38.375L35.4806 39ZM37.3125 38.0625V38.3319C37.3125 38.7009 37.0134 39 36.6444 39V38.375C36.6682 38.375 36.6875 38.3557 36.6875 38.3319V38.0625H37.3125Z" fill="#027DA3" mask="url(#path-59-outside-25_213_208507)"/>
<defs>
<linearGradient id="paint0_linear_213_208507" x1="35.9375" y1="18.0002" x2="20.9355" y2="39.667" gradientUnits="userSpaceOnUse">
<stop stop-color="#C0EAFE"/>
<stop offset="0.661611" stop-color="#32ADE6"/>
<stop offset="1" stop-color="#0E87BF"/>
</linearGradient>
<linearGradient id="paint1_linear_213_208507" x1="27.1875" y1="33.5627" x2="35.0706" y2="38.0627" gradientUnits="userSpaceOnUse">
<stop stop-color="white" stop-opacity="0"/>
<stop offset="1" stop-color="white"/>
</linearGradient>
<linearGradient id="paint2_linear_213_208507" x1="34.0625" y1="25.9292" x2="34.8571" y2="18.1904" gradientUnits="userSpaceOnUse">
<stop stop-color="white" stop-opacity="0"/>
<stop offset="1" stop-color="white"/>
</linearGradient>
<linearGradient id="paint3_linear_213_208507" x1="31.3125" y1="22.969" x2="32.1065" y2="17.9565" gradientUnits="userSpaceOnUse">
<stop stop-color="white" stop-opacity="0"/>
<stop offset="1" stop-color="white"/>
</linearGradient>
<linearGradient id="paint4_linear_213_208507" x1="25.0867" y1="32.2209" x2="34.8125" y2="24.6875" gradientUnits="userSpaceOnUse">
<stop offset="0.411655" stop-color="#999999" stop-opacity="0"/>
<stop offset="1" stop-color="white"/>
</linearGradient>
<linearGradient id="paint5_linear_213_208507" x1="31.3125" y1="29.333" x2="32.0625" y2="24.458" gradientUnits="userSpaceOnUse">
<stop stop-color="white" stop-opacity="0"/>
<stop offset="1" stop-color="white"/>
</linearGradient>
<linearGradient id="paint6_linear_213_208507" x1="34.0625" y1="38.5" x2="39" y2="31.375" gradientUnits="userSpaceOnUse">
<stop offset="0.411655" stop-color="#999999" stop-opacity="0"/>
<stop offset="1" stop-color="white"/>
</linearGradient>
<linearGradient id="paint7_linear_213_208507" x1="31.3125" y1="35.625" x2="32.0625" y2="30.75" gradientUnits="userSpaceOnUse">
<stop stop-color="white" stop-opacity="0"/>
<stop offset="1" stop-color="white"/>
</linearGradient>
</defs>
</svg>
