<svg width="58" height="59" viewBox="0 0 58 59" fill="none" xmlns="http://www.w3.org/2000/svg">
<circle cx="29" cy="29.1626" r="26.4444" stroke="white" stroke-width="4.88889"/>
<circle cx="29" cy="29.1626" r="26.037" fill="#0F5CCF" stroke="#013568" stroke-width="4.07407"/>
<circle cx="29" cy="29.1626" r="21.963" fill="#0F5CCF" stroke="white" stroke-width="4.07407"/>
<path d="M38.4897 29.8759C39.0385 29.559 39.0385 28.7669 38.4897 28.45L22.3395 19.125C22.1163 18.9962 21.8266 19.085 21.7279 19.3274C20.2994 22.8327 21.421 26.8838 24.47 29.1037C24.5097 29.1326 24.5097 29.1933 24.47 29.2222C21.421 31.4415 20.2994 35.4925 21.7279 38.9978C21.8266 39.2402 22.1163 39.329 22.3395 39.2002L38.4897 29.8759Z" fill="#0F5CCF" stroke="white" stroke-width="0.117188"/>
<path d="M38.4604 28.5007C38.9701 28.7951 38.9701 29.5308 38.4604 29.8251L22.3102 39.1494C22.1161 39.2615 21.8667 39.1833 21.7821 38.9757C20.3636 35.4949 21.4777 31.4727 24.5045 29.2696C24.5763 29.2173 24.5764 29.1086 24.5045 29.0563C21.4777 26.8525 20.3636 22.8303 21.7821 19.3495C21.8667 19.1419 22.1161 19.0637 22.3102 19.1758L38.4604 28.5007Z" fill="url(#paint0_linear_159_604652)"/>
<path d="M38.3627 28.6699C38.7423 28.889 38.7423 29.4369 38.3627 29.656L22.2126 38.9803C22.1152 39.0365 22.0004 38.9938 21.963 38.902C20.5778 35.5029 21.6665 31.5768 24.6194 29.4275C24.7984 29.2972 24.7985 29.0288 24.6194 28.8984C21.6665 26.7484 20.5778 22.8223 21.963 19.4232C22.0004 19.3314 22.1152 19.2887 22.2126 19.3449L38.3627 28.6699Z" stroke="white" stroke-width="0.390625"/>
<path d="M38.3823 28.6361C38.7878 28.8702 38.7878 29.4557 38.3822 29.6898L22.2321 39.0141C22.1154 39.0815 21.9737 39.0317 21.9268 38.9167C20.535 35.5013 21.6287 31.556 24.5964 29.3959C24.754 29.2812 24.754 29.0447 24.5964 28.93C21.6287 26.7693 20.535 22.8239 21.9268 19.4085C21.9737 19.2935 22.1154 19.2437 22.2321 19.3111L38.3823 28.6361Z" stroke="#013568" stroke-width="0.3125"/>
<defs>
<linearGradient id="paint0_linear_159_604652" x1="30.3896" y1="22.8831" x2="21.4821" y2="39.0447" gradientUnits="userSpaceOnUse">
<stop stop-color="#8DB8F9"/>
<stop offset="0.117239" stop-color="#0F5CCF"/>
<stop offset="0.343564" stop-color="#8DB8F9"/>
<stop offset="0.75197" stop-color="#0F5CCF"/>
<stop offset="1" stop-color="#013568"/>
</linearGradient>
</defs>
</svg>
