<svg width="58" height="59" viewBox="0 0 58 59" fill="none" xmlns="http://www.w3.org/2000/svg">
<circle cx="29.001" cy="29.1626" r="26.4444" stroke="white" stroke-width="4.88889"/>
<circle cx="29.001" cy="29.1626" r="26.037" fill="url(#paint0_linear_159_604658)" stroke="url(#paint1_linear_159_604658)" stroke-width="4.07407"/>
<circle cx="29.001" cy="29.1626" r="21.963" fill="url(#paint2_linear_159_604658)" stroke="white" stroke-width="4.07407"/>
<mask id="path-4-outside-1_159_604658" maskUnits="userSpaceOnUse" x="20.2529" y="17.1626" width="17" height="24" fill="black">
<rect fill="white" x="20.2529" y="17.1626" width="17" height="24"/>
<path fill-rule="evenodd" clip-rule="evenodd" d="M22.3838 23.9815C22.3082 23.94 22.2612 23.8606 22.2612 23.7744L22.2612 23.0005C22.2498 22.9135 22.2861 22.821 22.3702 22.7689C22.3746 22.7661 22.3791 22.7634 22.3837 22.7608L28.8875 19.1917C28.9582 19.1529 29.0439 19.1529 29.1146 19.1917L31.0938 20.2778L35.6215 22.7622C35.7163 22.8142 35.756 22.915 35.7409 23.0079V23.7744C35.7409 23.8606 35.6939 23.94 35.6183 23.9814L34.4334 24.6313L35.6167 25.2806C35.7115 25.3326 35.7513 25.4334 35.7361 25.5264V26.2928C35.7361 26.379 35.6891 26.4584 35.6135 26.4999L34.6607 27.0225L35.6173 27.5474C35.7121 27.5994 35.7519 27.7002 35.7367 27.7931V28.5596C35.7367 28.6458 35.6897 28.7252 35.6142 28.7666L34.6605 29.2897L35.6153 29.8135C35.71 29.8656 35.7498 29.9663 35.7347 30.0593V30.8258C35.7347 30.912 35.6877 30.9914 35.6121 31.0328L34.6601 31.5549L35.619 32.0811C35.7138 32.1331 35.7536 32.2339 35.7384 32.3269V33.0934C35.7384 33.1796 35.6915 33.2589 35.6159 33.3004L34.6619 33.8236L35.6167 34.3475C35.7115 34.3995 35.7513 34.5003 35.7361 34.5933V35.3597C35.7361 35.4459 35.6891 35.5253 35.6135 35.5668L29.1099 39.1336C29.0391 39.1724 28.9535 39.1724 28.8828 39.1336L22.379 35.5668C22.3034 35.5253 22.2564 35.446 22.2564 35.3598L22.2564 34.5859C22.245 34.4989 22.2813 34.4064 22.3654 34.3542C22.3698 34.3514 22.3743 34.3487 22.379 34.3462L23.3333 33.8225L22.3813 33.3004C22.3058 33.259 22.2588 33.1796 22.2588 33.0934L22.2588 32.3195C22.2473 32.2325 22.2836 32.14 22.3677 32.0878C22.3721 32.085 22.3767 32.0824 22.3813 32.0798L23.3336 31.5572L22.3776 31.0328C22.302 30.9914 22.255 30.912 22.255 30.8258L22.255 30.0519C22.2436 29.9649 22.2799 29.8724 22.3639 29.8203C22.3684 29.8175 22.3729 29.8148 22.3775 29.8122L23.3315 29.2887L22.3796 28.7667C22.304 28.7252 22.2571 28.6459 22.2571 28.5597L22.2571 27.7858C22.2456 27.6987 22.2819 27.6063 22.366 27.5541C22.3704 27.5513 22.3749 27.5486 22.3796 27.5461L23.3328 27.023L22.379 26.4999C22.3034 26.4584 22.2564 26.3791 22.2564 26.2929L22.2564 25.519C22.245 25.432 22.2813 25.3395 22.3654 25.2873C22.3698 25.2845 22.3743 25.2818 22.379 25.2793L23.5642 24.6288L22.3838 23.9815Z"/>
</mask>
<path d="M22.2612 23.7744H23.7612H22.2612ZM22.3838 23.9815L21.6625 25.2967L21.6625 25.2967L22.3838 23.9815ZM22.2612 23.0005H23.7612V22.9025L23.7484 22.8053L22.2612 23.0005ZM22.3702 22.7689L23.1608 24.0436L23.1693 24.0383L23.1777 24.033L22.3702 22.7689ZM22.3837 22.7608L21.6621 21.4458L21.6621 21.4459L22.3837 22.7608ZM28.8875 19.1917L28.1658 17.8767V17.8767L28.8875 19.1917ZM29.1146 19.1917L29.8363 17.8767L29.8363 17.8767L29.1146 19.1917ZM31.0938 20.2778L30.3721 21.5928L30.3722 21.5929L31.0938 20.2778ZM35.6215 22.7622L34.8999 24.0772V24.0772L35.6215 22.7622ZM35.7409 23.0079L34.2604 22.7665L34.2409 22.8864V23.0079H35.7409ZM35.7409 23.7744L37.2409 23.7744V23.7744H35.7409ZM35.6183 23.9814L34.897 22.6662L34.897 22.6662L35.6183 23.9814ZM34.4334 24.6313L33.7121 23.3161L31.3145 24.631L33.7118 25.9463L34.4334 24.6313ZM35.6167 25.2806L34.8952 26.5956V26.5956L35.6167 25.2806ZM35.7361 25.5264L34.2557 25.285L34.2361 25.4049V25.5264H35.7361ZM35.7361 26.2928L37.2361 26.2929V26.2928H35.7361ZM35.6135 26.4999L34.8923 25.1847L34.8923 25.1847L35.6135 26.4999ZM34.6607 27.0225L33.9394 25.7073L31.5418 27.0221L33.9391 28.3375L34.6607 27.0225ZM35.6173 27.5474L34.8958 28.8624L34.8958 28.8624L35.6173 27.5474ZM35.7367 27.7931L34.2563 27.5518L34.2367 27.6717V27.7931H35.7367ZM35.7367 28.5596L37.2367 28.5596V28.5596H35.7367ZM35.6142 28.7666L34.8929 27.4514L34.8929 27.4514L35.6142 28.7666ZM34.6605 29.2897L33.9392 27.9745L31.5417 29.2893L33.9389 30.6047L34.6605 29.2897ZM35.6153 29.8135L34.8937 31.1286L34.8937 31.1286L35.6153 29.8135ZM35.7347 30.0593L34.2542 29.8179L34.2347 29.9378V30.0593H35.7347ZM35.7347 30.8258L37.2347 30.8258V30.8258H35.7347ZM35.6121 31.0328L34.8908 29.7176L34.8908 29.7176L35.6121 31.0328ZM34.6601 31.5549L33.9388 30.2397L31.5412 31.5546L33.9385 32.87L34.6601 31.5549ZM35.619 32.0811L34.8975 33.3962L34.8975 33.3962L35.619 32.0811ZM35.7384 32.3269L34.258 32.0855L34.2384 32.2054V32.3269H35.7384ZM35.7384 33.0934L37.2384 33.0934V33.0934H35.7384ZM35.6159 33.3004L34.8946 31.9852L35.6159 33.3004ZM34.6619 33.8236L33.9406 32.5084L31.5431 33.8233L33.9403 35.1386L34.6619 33.8236ZM35.6167 34.3475L34.8952 35.6625L34.8952 35.6625L35.6167 34.3475ZM35.7361 34.5933L34.2557 34.3519L34.2361 34.4718V34.5933H35.7361ZM35.7361 35.3597L37.2361 35.3597V35.3597H35.7361ZM35.6135 35.5668L36.3348 36.8819L36.3349 36.8819L35.6135 35.5668ZM29.1099 39.1336L29.8311 40.4488L29.8311 40.4488L29.1099 39.1336ZM28.8828 39.1336L29.6041 37.8184H29.6041L28.8828 39.1336ZM22.379 35.5668L21.6577 36.882L21.6577 36.882L22.379 35.5668ZM22.2564 35.3598H23.7564H22.2564ZM22.2564 34.5859H23.7564V34.4878L23.7437 34.3906L22.2564 34.5859ZM22.3654 34.3542L23.1561 35.6289L23.1645 35.6237L23.1729 35.6183L22.3654 34.3542ZM22.379 34.3462L21.6573 33.0312L21.6573 33.0312L22.379 34.3462ZM23.3333 33.8225L24.0549 35.1375L26.4519 33.822L24.0545 32.5073L23.3333 33.8225ZM22.3813 33.3004L23.1026 31.9852L23.1026 31.9852L22.3813 33.3004ZM22.2588 33.0934H23.7588H22.2588ZM22.2588 32.3195H23.7588V32.2215L23.746 32.1243L22.2588 32.3195ZM22.3677 32.0878L23.1584 33.3626L23.1668 33.3573L23.1752 33.3519L22.3677 32.0878ZM22.3813 32.0798L21.6596 30.7648L21.6596 30.7648L22.3813 32.0798ZM23.3336 31.5572L24.0553 32.8722L26.4523 31.5567L24.0549 30.242L23.3336 31.5572ZM22.3776 31.0328L23.0988 29.7176L23.0988 29.7176L22.3776 31.0328ZM22.255 30.8258H23.755H22.255ZM22.255 30.0519H23.755V29.9539L23.7422 29.8567L22.255 30.0519ZM22.3639 29.8203L23.1546 31.095L23.1631 31.0897L23.1715 31.0844L22.3639 29.8203ZM22.3775 29.8122L21.6559 28.4972L21.6558 28.4973L22.3775 29.8122ZM23.3315 29.2887L24.0531 30.6037L26.4502 29.2883L24.0528 27.9735L23.3315 29.2887ZM22.3796 28.7667L23.1009 27.4515L23.1009 27.4515L22.3796 28.7667ZM22.2571 28.5597H23.7571H22.2571ZM22.2571 27.7858H23.7571V27.6877L23.7443 27.5905L22.2571 27.7858ZM22.366 27.5541L23.1567 28.8288L23.1651 28.8236L23.1735 28.8182L22.366 27.5541ZM22.3796 27.5461L21.6579 26.2311L21.6579 26.2311L22.3796 27.5461ZM23.3328 27.023L24.0544 28.338L26.4514 27.0225L24.0541 25.7078L23.3328 27.023ZM22.379 26.4999L21.6577 27.8151L21.6577 27.8151L22.379 26.4999ZM22.2564 26.2929H23.7564H22.2564ZM22.2564 25.519H23.7564V25.4209L23.7437 25.3238L22.2564 25.519ZM22.3654 25.2873L23.1561 26.562L23.1645 26.5568L23.1729 26.5514L22.3654 25.2873ZM22.379 25.2793L23.1006 26.5943L23.1006 26.5943L22.379 25.2793ZM23.5642 24.6288L24.2859 25.9438L26.6829 24.6284L24.2855 23.3136L23.5642 24.6288ZM20.7612 23.7744C20.7612 24.4083 21.1067 24.9918 21.6625 25.2967L23.1051 22.6663C23.5097 22.8882 23.7612 23.313 23.7612 23.7744H20.7612ZM20.7612 23.0005L20.7612 23.7744H23.7612L23.7612 23.0005H20.7612ZM21.5795 21.4942C20.9524 21.8831 20.6925 22.5754 20.774 23.1958L23.7484 22.8053C23.807 23.2517 23.6197 23.7589 23.1608 24.0436L21.5795 21.4942ZM21.6621 21.4459C21.6282 21.4644 21.5951 21.4841 21.5627 21.5048L23.1777 24.033C23.1541 24.048 23.13 24.0623 23.1054 24.0758L21.6621 21.4459ZM28.1658 17.8767L21.6621 21.4458L23.1054 24.0758L29.6091 20.5067L28.1658 17.8767ZM29.8363 17.8767C29.3161 17.5912 28.686 17.5912 28.1658 17.8767L29.6091 20.5067C29.2304 20.7146 28.7717 20.7146 28.393 20.5067L29.8363 17.8767ZM31.8154 18.9628L29.8363 17.8767L28.393 20.5067L30.3721 21.5928L31.8154 18.9628ZM36.343 21.4471L31.8154 18.9628L30.3722 21.5929L34.8999 24.0772L36.343 21.4471ZM37.2213 23.2493C37.3295 22.586 37.0438 21.8316 36.343 21.4471L34.8999 24.0772C34.3888 23.7967 34.1826 23.2439 34.2604 22.7665L37.2213 23.2493ZM37.2409 23.7744V23.0079H34.2409V23.7744H37.2409ZM36.3396 25.2966C36.8954 24.9918 37.2409 24.4083 37.2409 23.7744L34.2409 23.7744C34.2409 23.3129 34.4924 22.8881 34.897 22.6662L36.3396 25.2966ZM35.1547 25.9465L36.3396 25.2966L34.897 22.6662L33.7121 23.3161L35.1547 25.9465ZM36.3383 23.9655L35.1549 23.3162L33.7118 25.9463L34.8952 26.5956L36.3383 23.9655ZM37.2166 25.7678C37.3247 25.1044 37.039 24.35 36.3383 23.9655L34.8952 26.5956C34.384 26.3152 34.1778 25.7624 34.2557 25.285L37.2166 25.7678ZM37.2361 26.2928V25.5264H34.2361V26.2928H37.2361ZM36.3348 27.8151C36.8906 27.5102 37.2361 26.9267 37.2361 26.2929L34.2361 26.2928C34.2361 25.8314 34.4876 25.4066 34.8923 25.1847L36.3348 27.8151ZM35.382 28.3376L36.3348 27.8151L34.8923 25.1847L33.9394 25.7073L35.382 28.3376ZM36.3389 26.2323L35.3822 25.7074L33.9391 28.3375L34.8958 28.8624L36.3389 26.2323ZM37.2172 28.0345C37.3253 27.3712 37.0396 26.6168 36.3389 26.2323L34.8958 28.8624C34.3846 28.582 34.1784 28.0292 34.2563 27.5518L37.2172 28.0345ZM37.2367 28.5596V27.7931H34.2367V28.5596H37.2367ZM36.3355 30.0818C36.8913 29.777 37.2367 29.1935 37.2367 28.5596L34.2367 28.5596C34.2367 28.0982 34.4882 27.6734 34.8929 27.4514L36.3355 30.0818ZM35.3818 30.6049L36.3355 30.0818L34.8929 27.4514L33.9392 27.9745L35.3818 30.6049ZM36.3368 28.4985L35.382 27.9746L33.9389 30.6047L34.8937 31.1286L36.3368 28.4985ZM37.2151 30.3007C37.3233 29.6374 37.0376 28.883 36.3368 28.4985L34.8937 31.1286C34.3825 30.8481 34.1764 30.2953 34.2542 29.8179L37.2151 30.3007ZM37.2347 30.8258V30.0593H34.2347V30.8258H37.2347ZM36.3334 32.348C36.8892 32.0432 37.2347 31.4597 37.2347 30.8258L34.2347 30.8258C34.2347 30.3643 34.4862 29.9395 34.8908 29.7176L36.3334 32.348ZM35.3813 32.8701L36.3334 32.348L34.8908 29.7176L33.9388 30.2397L35.3813 32.8701ZM36.3406 30.7661L35.3816 30.2399L33.9385 32.87L34.8975 33.3962L36.3406 30.7661ZM37.2189 32.5683C37.3271 31.9049 37.0413 31.1506 36.3406 30.7661L34.8975 33.3962C34.3863 33.1157 34.1802 32.5629 34.258 32.0855L37.2189 32.5683ZM37.2384 33.0934V32.3269H34.2384V33.0934H37.2384ZM36.3372 34.6156C36.893 34.3108 37.2384 33.7273 37.2384 33.0934L34.2384 33.0934C34.2384 32.6319 34.4899 32.2071 34.8946 31.9852L36.3372 34.6156ZM35.3832 35.1388L36.3372 34.6156L34.8946 31.9852L33.9406 32.5084L35.3832 35.1388ZM36.3383 33.0324L35.3835 32.5085L33.9403 35.1386L34.8952 35.6625L36.3383 33.0324ZM37.2166 34.8346C37.3247 34.1713 37.039 33.4169 36.3383 33.0324L34.8952 35.6625C34.384 35.3821 34.1778 34.8293 34.2557 34.3519L37.2166 34.8346ZM37.2361 35.3597V34.5933H34.2361V35.3597H37.2361ZM36.3349 36.8819C36.8906 36.5771 37.2361 35.9936 37.2361 35.3597L34.2361 35.3597C34.2361 34.8983 34.4876 34.4735 34.8922 34.2516L36.3349 36.8819ZM29.8311 40.4488L36.3348 36.8819L34.8923 34.2516L28.3886 37.8184L29.8311 40.4488ZM28.1615 40.4488C28.6815 40.734 29.3111 40.7339 29.8311 40.4488L28.3886 37.8184C28.7671 37.6108 29.2255 37.6107 29.6041 37.8184L28.1615 40.4488ZM21.6577 36.882L28.1615 40.4488L29.6041 37.8184L23.1003 34.2516L21.6577 36.882ZM20.7564 35.3598C20.7564 35.9937 21.1019 36.5772 21.6577 36.882L23.1003 34.2516C23.5049 34.4735 23.7564 34.8983 23.7564 35.3598H20.7564ZM20.7564 34.5859L20.7564 35.3598H23.7564L23.7564 34.5859H20.7564ZM21.5748 33.0795C20.9477 33.4685 20.6878 34.1607 20.7692 34.7811L23.7437 34.3906C23.8023 34.837 23.615 35.3443 23.1561 35.6289L21.5748 33.0795ZM21.6573 33.0312C21.6235 33.0497 21.5904 33.0694 21.5579 33.0901L23.1729 35.6183C23.1493 35.6334 23.1252 35.6477 23.1007 35.6611L21.6573 33.0312ZM22.6116 32.5075L21.6573 33.0312L23.1006 35.6612L24.0549 35.1375L22.6116 32.5075ZM21.6601 34.6156L22.612 35.1377L24.0545 32.5073L23.1026 31.9852L21.6601 34.6156ZM20.7588 33.0934C20.7588 33.7273 21.1042 34.3108 21.6601 34.6156L23.1026 31.9852C23.5073 32.2071 23.7588 32.6319 23.7588 33.0934H20.7588ZM20.7588 32.3195L20.7588 33.0934H23.7588L23.7588 32.3195H20.7588ZM21.5771 30.8131C20.95 31.2021 20.6901 31.8944 20.7715 32.5147L23.746 32.1243C23.8046 32.5706 23.6173 33.0779 23.1584 33.3626L21.5771 30.8131ZM21.6596 30.7648C21.6258 30.7834 21.5927 30.803 21.5602 30.8238L23.1752 33.3519C23.1516 33.367 23.1275 33.3813 23.103 33.3948L21.6596 30.7648ZM22.612 30.2422L21.6596 30.7648L23.1029 33.3948L24.0553 32.8722L22.612 30.2422ZM21.6563 32.3481L22.6124 32.8724L24.0549 30.242L23.0988 29.7176L21.6563 32.3481ZM20.755 30.8258C20.755 31.4597 21.1005 32.0432 21.6563 32.3481L23.0988 29.7176C23.5035 29.9396 23.755 30.3644 23.755 30.8258H20.755ZM20.755 30.0519L20.755 30.8258H23.755L23.755 30.0519H20.755ZM21.5733 28.5456C20.9462 28.9345 20.6863 29.6268 20.7677 30.2471L23.7422 29.8567C23.8008 30.303 23.6135 30.8103 23.1546 31.095L21.5733 28.5456ZM21.6558 28.4973C21.622 28.5158 21.5889 28.5354 21.5564 28.5562L23.1715 31.0844C23.1478 31.0995 23.1237 31.1138 23.0992 31.1272L21.6558 28.4973ZM22.6099 27.9737L21.6559 28.4972L23.0991 31.1272L24.0531 30.6037L22.6099 27.9737ZM21.6583 30.0819L22.6102 30.6039L24.0528 27.9735L23.1009 27.4515L21.6583 30.0819ZM20.7571 28.5597C20.7571 29.1935 21.1025 29.7771 21.6584 30.0819L23.1009 27.4515C23.5055 27.6734 23.7571 28.0982 23.7571 28.5597H20.7571ZM20.7571 27.7858L20.7571 28.5597H23.7571L23.7571 27.7858H20.7571ZM21.5754 26.2794C20.9483 26.6684 20.6884 27.3606 20.7698 27.981L23.7443 27.5905C23.8029 28.0369 23.6156 28.5442 23.1567 28.8288L21.5754 26.2794ZM21.6579 26.2311C21.6241 26.2496 21.591 26.2693 21.5585 26.29L23.1735 28.8182C23.1499 28.8333 23.1258 28.8476 23.1013 28.861L21.6579 26.2311ZM22.6111 25.708L21.6579 26.2311L23.1012 28.8611L24.0544 28.338L22.6111 25.708ZM21.6577 27.8151L22.6115 28.3382L24.0541 25.7078L23.1003 25.1847L21.6577 27.8151ZM20.7564 26.2929C20.7564 26.9268 21.1019 27.5103 21.6577 27.8151L23.1003 25.1847C23.5049 25.4066 23.7564 25.8314 23.7564 26.2929H20.7564ZM20.7564 25.519L20.7564 26.2929H23.7564L23.7564 25.519H20.7564ZM21.5748 24.0126C20.9477 24.4016 20.6878 25.0938 20.7692 25.7142L23.7437 25.3238C23.8023 25.7701 23.615 26.2774 23.1561 26.562L21.5748 24.0126ZM21.6574 23.9643C21.6235 23.9829 21.5903 24.0025 21.5579 24.0232L23.1729 26.5514C23.1493 26.5665 23.1252 26.5808 23.1006 26.5943L21.6574 23.9643ZM22.8426 23.3138L21.6573 23.9643L23.1006 26.5943L24.2859 25.9438L22.8426 23.3138ZM21.6625 25.2967L22.8429 25.944L24.2855 23.3136L23.1051 22.6663L21.6625 25.2967Z" fill="white" mask="url(#path-4-outside-1_159_604658)"/>
<path d="M28.9988 38.4558L22.9082 35.1157L22.9082 34.7983L28.9987 31.4559L35.0893 34.7983V35.1156L28.9988 38.4558Z" stroke="#FF2F2F" stroke-width="1.29862"/>
<path d="M28.9994 38.0339L22.6161 34.5548L28.9994 31.0523L35.3827 34.5548L28.9994 38.0339ZM28.971 31.0367L28.9711 31.0368L28.971 31.0367Z" stroke="#B70433" stroke-width="0.590282"/>
<path opacity="0.7" d="M28.9986 37.6979L23.2305 34.5541L28.9986 31.3892L34.7668 34.5541L28.9986 37.6979Z" fill="#FF2F2F"/>
<g style="mix-blend-mode:screen" opacity="0.6">
<path d="M29.025 37.6974L23.2568 34.5536L29.025 31.3887L34.7932 34.5536L29.025 37.6974Z" fill="url(#paint3_linear_159_604658)" fill-opacity="0.5"/>
</g>
<path d="M28.9988 36.1892L22.9082 32.8491L22.9082 32.5317L28.9987 29.1893L35.0893 32.5317V32.849L28.9988 36.1892Z" stroke="#FF6F00" stroke-width="1.29862"/>
<path d="M28.9994 35.7673L22.6161 32.2882L28.9994 28.7857L35.3827 32.2882L28.9994 35.7673ZM28.971 28.7701L28.9711 28.7702L28.971 28.7701Z" stroke="#BC310C" stroke-width="0.590282"/>
<path opacity="0.7" d="M28.9986 35.4313L23.2305 32.2875L28.9986 29.1226L34.7668 32.2875L28.9986 35.4313Z" fill="#FF6F00"/>
<g style="mix-blend-mode:screen" opacity="0.6">
<path d="M29.025 35.4308L23.2568 32.287L29.025 29.1221L34.7932 32.287L29.025 35.4308Z" fill="url(#paint4_linear_159_604658)" fill-opacity="0.5"/>
</g>
<path d="M28.9988 33.9217L22.9082 30.5815L22.9082 30.2641L28.9987 26.9217L35.0893 30.2641V30.5814L28.9988 33.9217Z" stroke="#FFCC02" stroke-width="1.29862"/>
<path d="M28.9994 33.4997L22.6161 30.0206L28.9994 26.5181L35.3827 30.0206L28.9994 33.4997ZM28.971 26.5026L28.9711 26.5026L28.971 26.5026Z" stroke="#C18B1E" stroke-width="0.590282"/>
<path opacity="0.7" d="M28.9986 33.1637L23.2305 30.0199L28.9986 26.855L34.7668 30.0199L28.9986 33.1637Z" fill="#FFCC02"/>
<g style="mix-blend-mode:screen" opacity="0.6">
<path d="M29.025 33.1637L23.2568 30.0199L29.025 26.855L34.7932 30.0199L29.025 33.1637Z" fill="url(#paint5_linear_159_604658)" fill-opacity="0.5"/>
</g>
<path d="M28.9988 31.6551L22.9082 28.3149L22.9082 27.9975L28.9987 24.6551L35.0893 27.9975V28.3148L28.9988 31.6551Z" stroke="#32ADE6" stroke-width="1.29862"/>
<path d="M28.9994 31.2331L22.6161 27.754L28.9994 24.2515L35.3827 27.754L28.9994 31.2331ZM28.971 24.236L28.9711 24.236L28.971 24.236Z" stroke="#027DA3" stroke-width="0.590282"/>
<path opacity="0.7" d="M28.9986 30.8976L23.2305 27.7538L28.9986 24.5889L34.7668 27.7538L28.9986 30.8976Z" fill="#32ADE6"/>
<g style="mix-blend-mode:screen" opacity="0.6">
<path d="M29.025 30.8971L23.2568 27.7533L29.025 24.5884L34.7932 27.7533L29.025 30.8971Z" fill="url(#paint6_linear_159_604658)" fill-opacity="0.5"/>
</g>
<path d="M28.9988 29.3885L22.9082 26.0483L22.9082 25.7309L28.9987 22.3885L35.0893 25.7309V26.0482L28.9988 29.3885Z" stroke="#34C759" stroke-width="1.29862"/>
<path d="M28.9994 28.9665L22.6161 25.4874L28.9994 21.9849L35.3827 25.4874L28.9994 28.9665ZM28.971 21.9694L28.9711 21.9694L28.971 21.9694Z" stroke="#038745" stroke-width="0.590282"/>
<path opacity="0.7" d="M28.9986 28.6305L23.2305 25.4867L28.9986 22.3218L34.7668 25.4867L28.9986 28.6305Z" fill="#34C759"/>
<g style="mix-blend-mode:screen" opacity="0.6">
<path d="M29.025 28.63L23.2568 25.4862L29.025 22.3213L34.7932 25.4862L29.025 28.63Z" fill="url(#paint7_linear_159_604658)" fill-opacity="0.5"/>
</g>
<path d="M28.9997 26.8704L22.9092 23.5302L22.9092 23.2128L28.9997 19.8705L35.0902 23.2128V23.5302L28.9997 26.8704Z" stroke="#0F5CCF" stroke-width="1.29862"/>
<path d="M29.0004 26.4489L22.6171 22.9698L29.0004 19.4674L35.3837 22.9698L29.0004 26.4489ZM28.972 19.4518L28.9721 19.4518L28.972 19.4518Z" stroke="#013568" stroke-width="0.590282"/>
<path opacity="0.7" d="M29.0006 26.1125L23.2324 22.9687L29.0006 19.8037L34.7688 22.9687L29.0006 26.1125Z" fill="#0F5CCF"/>
<g style="mix-blend-mode:screen" opacity="0.6">
<path d="M29.027 26.1125L23.2588 22.9687L29.027 19.8037L34.7951 22.9687L29.027 26.1125Z" fill="url(#paint8_linear_159_604658)" fill-opacity="0.5"/>
</g>
<defs>
<linearGradient id="paint0_linear_159_604658" x1="12.0003" y1="46.5724" x2="40.5152" y2="7.65156" gradientUnits="userSpaceOnUse">
<stop stop-color="#FF2F2F"/>
<stop offset="0.14" stop-color="#FF2F2F"/>
<stop offset="0.140162" stop-color="#FF6F00"/>
<stop offset="0.29" stop-color="#FF6F00"/>
<stop offset="0.290491" stop-color="#FFCC02"/>
<stop offset="0.43" stop-color="#FFCC02"/>
<stop offset="0.430143" stop-color="#34C759"/>
<stop offset="0.57" stop-color="#34C759"/>
<stop offset="0.570445" stop-color="#32ADE6"/>
<stop offset="0.71" stop-color="#32ADE6"/>
<stop offset="0.710085" stop-color="#105ECF"/>
<stop offset="0.85" stop-color="#105FCF"/>
<stop offset="0.850057" stop-color="#013568"/>
</linearGradient>
<linearGradient id="paint1_linear_159_604658" x1="12.0003" y1="46.5724" x2="40.5152" y2="7.65156" gradientUnits="userSpaceOnUse">
<stop stop-color="#FF2F2F"/>
<stop offset="0.14" stop-color="#FF2F2F"/>
<stop offset="0.140162" stop-color="#FF6F00"/>
<stop offset="0.29" stop-color="#FF6F00"/>
<stop offset="0.290491" stop-color="#FFCC02"/>
<stop offset="0.43" stop-color="#FFCC02"/>
<stop offset="0.430143" stop-color="#34C759"/>
<stop offset="0.57" stop-color="#34C759"/>
<stop offset="0.570445" stop-color="#32ADE6"/>
<stop offset="0.71" stop-color="#32ADE6"/>
<stop offset="0.710085" stop-color="#105ECF"/>
<stop offset="0.85" stop-color="#105FCF"/>
<stop offset="0.850057" stop-color="#013568"/>
</linearGradient>
<linearGradient id="paint2_linear_159_604658" x1="12.0003" y1="46.5724" x2="40.5152" y2="7.65156" gradientUnits="userSpaceOnUse">
<stop stop-color="#FF2F2F"/>
<stop offset="0.14" stop-color="#FF2F2F"/>
<stop offset="0.140162" stop-color="#FF6F00"/>
<stop offset="0.29" stop-color="#FF6F00"/>
<stop offset="0.290491" stop-color="#FFCC02"/>
<stop offset="0.43" stop-color="#FFCC02"/>
<stop offset="0.430143" stop-color="#34C759"/>
<stop offset="0.57" stop-color="#34C759"/>
<stop offset="0.570445" stop-color="#32ADE6"/>
<stop offset="0.71" stop-color="#32ADE6"/>
<stop offset="0.710085" stop-color="#105ECF"/>
<stop offset="0.85" stop-color="#105FCF"/>
<stop offset="0.850057" stop-color="#013568"/>
</linearGradient>
<linearGradient id="paint3_linear_159_604658" x1="34.1274" y1="33.7289" x2="22.4988" y2="38.9824" gradientUnits="userSpaceOnUse">
<stop offset="0.141717"/>
<stop offset="0.280319" stop-color="white" stop-opacity="0.75"/>
<stop offset="0.370537" stop-opacity="0.9"/>
<stop offset="0.373425" stop-color="white" stop-opacity="0.75"/>
<stop offset="0.458455" stop-color="#848484" stop-opacity="0.6"/>
<stop offset="0.514029"/>
</linearGradient>
<linearGradient id="paint4_linear_159_604658" x1="34.1274" y1="31.4623" x2="22.4988" y2="36.7158" gradientUnits="userSpaceOnUse">
<stop offset="0.141717"/>
<stop offset="0.280319" stop-color="white" stop-opacity="0.75"/>
<stop offset="0.370537" stop-opacity="0.9"/>
<stop offset="0.373425" stop-color="white" stop-opacity="0.75"/>
<stop offset="0.458455" stop-color="#848484" stop-opacity="0.6"/>
<stop offset="0.514029"/>
</linearGradient>
<linearGradient id="paint5_linear_159_604658" x1="34.1274" y1="29.1952" x2="22.4988" y2="34.4487" gradientUnits="userSpaceOnUse">
<stop offset="0.141717"/>
<stop offset="0.280319" stop-color="white" stop-opacity="0.75"/>
<stop offset="0.370537" stop-opacity="0.9"/>
<stop offset="0.373425" stop-color="white" stop-opacity="0.75"/>
<stop offset="0.458455" stop-color="#848484" stop-opacity="0.6"/>
<stop offset="0.514029"/>
</linearGradient>
<linearGradient id="paint6_linear_159_604658" x1="34.1274" y1="26.9286" x2="22.4988" y2="32.1821" gradientUnits="userSpaceOnUse">
<stop offset="0.141717"/>
<stop offset="0.280319" stop-color="white" stop-opacity="0.75"/>
<stop offset="0.370537" stop-opacity="0.9"/>
<stop offset="0.373425" stop-color="white" stop-opacity="0.75"/>
<stop offset="0.458455" stop-color="#848484" stop-opacity="0.6"/>
<stop offset="0.514029"/>
</linearGradient>
<linearGradient id="paint7_linear_159_604658" x1="34.1274" y1="24.6615" x2="22.4988" y2="29.9151" gradientUnits="userSpaceOnUse">
<stop offset="0.141717"/>
<stop offset="0.280319" stop-color="white" stop-opacity="0.75"/>
<stop offset="0.370537" stop-opacity="0.9"/>
<stop offset="0.373425" stop-color="white" stop-opacity="0.75"/>
<stop offset="0.458455" stop-color="#848484" stop-opacity="0.6"/>
<stop offset="0.514029"/>
</linearGradient>
<linearGradient id="paint8_linear_159_604658" x1="34.1293" y1="22.144" x2="22.5008" y2="27.3975" gradientUnits="userSpaceOnUse">
<stop offset="0.141717"/>
<stop offset="0.280319" stop-color="white" stop-opacity="0.75"/>
<stop offset="0.370537" stop-opacity="0.9"/>
<stop offset="0.373425" stop-color="white" stop-opacity="0.75"/>
<stop offset="0.458455" stop-color="#848484" stop-opacity="0.6"/>
<stop offset="0.514029"/>
</linearGradient>
</defs>
</svg>
