<svg width="58" height="59" viewBox="0 0 58 59" fill="none" xmlns="http://www.w3.org/2000/svg">
<circle cx="29.002" cy="29.1626" r="26.4444" stroke="white" stroke-width="4.88889"/>
<circle cx="29.002" cy="29.1626" r="26.037" fill="#0F5CCF" stroke="#C18B1E" stroke-width="4.07407"/>
<circle cx="29.002" cy="29.1626" r="21.963" fill="#FFCC02" stroke="white" stroke-width="4.07407"/>
<mask id="path-4-outside-1_159_604664" maskUnits="userSpaceOnUse" x="19.3154" y="30.8018" width="10" height="11" fill="black">
<rect fill="white" x="19.3154" y="30.8018" width="10" height="11"/>
<path fill-rule="evenodd" clip-rule="evenodd" d="M25.7288 33.4752C25.7293 33.4679 25.7295 33.4607 25.7295 33.4533C25.7295 33.0935 25.1461 32.8018 24.4264 32.8018C23.7066 32.8018 23.1232 33.0935 23.1232 33.4533C23.1232 33.4595 23.1234 33.4656 23.1237 33.4718L23.0586 33.7321C22.9656 34.1043 23.0908 34.497 23.382 34.7466L23.4695 34.8216C23.6153 34.9466 23.5744 35.1821 23.3949 35.2504L21.9677 35.7941C21.4915 35.9755 21.2243 36.4826 21.3439 36.978L21.8918 39.2482C21.9712 39.5772 22.2249 39.8361 22.5522 39.9222C23.7804 40.2454 25.0713 40.2454 26.2994 39.9222C26.6268 39.8361 26.8804 39.5772 26.9598 39.2482L27.5078 36.978C27.6274 36.4826 27.3601 35.9755 26.8839 35.7941L25.4567 35.2504C25.2773 35.1821 25.2363 34.9466 25.3821 34.8216L25.4696 34.7466C25.7608 34.497 25.886 34.1043 25.793 33.7321L25.7288 33.4752Z"/>
</mask>
<path fill-rule="evenodd" clip-rule="evenodd" d="M25.7288 33.4752C25.7293 33.4679 25.7295 33.4607 25.7295 33.4533C25.7295 33.0935 25.1461 32.8018 24.4264 32.8018C23.7066 32.8018 23.1232 33.0935 23.1232 33.4533C23.1232 33.4595 23.1234 33.4656 23.1237 33.4718L23.0586 33.7321C22.9656 34.1043 23.0908 34.497 23.382 34.7466L23.4695 34.8216C23.6153 34.9466 23.5744 35.1821 23.3949 35.2504L21.9677 35.7941C21.4915 35.9755 21.2243 36.4826 21.3439 36.978L21.8918 39.2482C21.9712 39.5772 22.2249 39.8361 22.5522 39.9222C23.7804 40.2454 25.0713 40.2454 26.2994 39.9222C26.6268 39.8361 26.8804 39.5772 26.9598 39.2482L27.5078 36.978C27.6274 36.4826 27.3601 35.9755 26.8839 35.7941L25.4567 35.2504C25.2773 35.1821 25.2363 34.9466 25.3821 34.8216L25.4696 34.7466C25.7608 34.497 25.886 34.1043 25.793 33.7321L25.7288 33.4752Z" fill="#013568"/>
<path d="M25.7288 33.4752L24.232 33.3764L24.2166 33.611L24.2736 33.839L25.7288 33.4752ZM23.1237 33.4718L24.5789 33.8356L24.634 33.6153L24.6214 33.3885L23.1237 33.4718ZM23.0586 33.7321L21.6034 33.3683L21.6034 33.3683L23.0586 33.7321ZM23.382 34.7466L24.3582 33.6077L24.3582 33.6077L23.382 34.7466ZM23.4695 34.8216L22.4933 35.9605L22.4933 35.9605L23.4695 34.8216ZM23.3949 35.2504L23.9289 36.6522H23.9289L23.3949 35.2504ZM21.9677 35.7941L22.5017 37.1958H22.5017L21.9677 35.7941ZM21.3439 36.978L19.8857 37.33L21.3439 36.978ZM21.8918 39.2482L20.4337 39.6001L20.4337 39.6001L21.8918 39.2482ZM22.5522 39.9222L22.1704 41.3728L22.1705 41.3728L22.5522 39.9222ZM26.2994 39.9222L26.6812 41.3728L26.6812 41.3728L26.2994 39.9222ZM26.9598 39.2482L25.5017 38.8962L26.9598 39.2482ZM27.5078 36.978L28.9659 37.33L28.9659 37.33L27.5078 36.978ZM26.8839 35.7941L26.3499 37.1958L26.8839 35.7941ZM25.4567 35.2504L24.9227 36.6522L24.9227 36.6522L25.4567 35.2504ZM25.3821 34.8216L24.4059 33.6828L24.4059 33.6828L25.3821 34.8216ZM25.4696 34.7466L26.4458 35.8855L26.4458 35.8855L25.4696 34.7466ZM25.793 33.7321L27.2482 33.3683L27.2482 33.3683L25.793 33.7321ZM24.2295 33.4533C24.2295 33.4277 24.2303 33.402 24.232 33.3764L27.2255 33.574C27.2282 33.5339 27.2295 33.4936 27.2295 33.4533H24.2295ZM24.4264 34.3018C24.6038 34.3018 24.6903 34.3409 24.677 34.3342C24.6699 34.3307 24.5827 34.2877 24.4819 34.1685C24.3728 34.0395 24.2295 33.7937 24.2295 33.4533H27.2295C27.2295 32.3992 26.4139 31.8486 26.0186 31.651C25.5336 31.4085 24.9686 31.3018 24.4264 31.3018V34.3018ZM24.6232 33.4533C24.6232 33.7937 24.4799 34.0395 24.3708 34.1685C24.27 34.2877 24.1828 34.3307 24.1757 34.3342C24.1624 34.3409 24.2489 34.3018 24.4264 34.3018V31.3018C23.8841 31.3018 23.3191 31.4085 22.8341 31.651C22.4388 31.8486 21.6232 32.3992 21.6232 33.4533H24.6232ZM24.6214 33.3885C24.6226 33.4101 24.6232 33.4317 24.6232 33.4533H21.6232C21.6232 33.4873 21.6241 33.5212 21.626 33.555L24.6214 33.3885ZM21.6685 33.108L21.6034 33.3683L24.5138 34.096L24.5789 33.8356L21.6685 33.108ZM21.6034 33.3683C21.3726 34.2917 21.6832 35.2661 22.4058 35.8855L24.3582 33.6077C24.4984 33.7279 24.5586 33.9169 24.5138 34.096L21.6034 33.3683ZM22.4058 35.8855L22.4933 35.9605L24.4457 33.6828L24.3582 33.6077L22.4058 35.8855ZM22.4933 35.9605C21.7753 35.345 21.9771 34.1854 22.8609 33.8487L23.9289 36.6522C25.1716 36.1787 25.4554 34.5482 24.4457 33.6828L22.4933 35.9605ZM22.8609 33.8487L21.4337 34.3924L22.5017 37.1958L23.9289 36.6522L22.8609 33.8487ZM21.4337 34.3924C20.2521 34.8426 19.589 36.1008 19.8857 37.33L22.802 36.6261C22.8595 36.8645 22.7309 37.1085 22.5017 37.1958L21.4337 34.3924ZM19.8857 37.33L20.4337 39.6001L23.3499 38.8962L22.802 36.6261L19.8857 37.33ZM20.4337 39.6001C20.6426 40.4655 21.3096 41.1463 22.1704 41.3728L22.9339 38.4716C23.1401 38.5259 23.2999 38.6889 23.3499 38.8962L20.4337 39.6001ZM22.1705 41.3728C23.6489 41.7619 25.2028 41.7619 26.6812 41.3728L25.9177 38.4716C24.9398 38.729 23.9119 38.729 22.9339 38.4716L22.1705 41.3728ZM26.6812 41.3728C27.542 41.1463 28.2091 40.4655 28.4179 39.6001L25.5017 38.8962C25.5517 38.6889 25.7115 38.5259 25.9177 38.4716L26.6812 41.3728ZM28.4179 39.6001L28.9659 37.33L26.0497 36.6261L25.5017 38.8962L28.4179 39.6001ZM28.9659 37.33C29.2626 36.1008 28.5996 34.8426 27.4179 34.3924L26.3499 37.1958C26.1207 37.1085 25.9921 36.8645 26.0497 36.6261L28.9659 37.33ZM27.4179 34.3924L25.9907 33.8487L24.9227 36.6522L26.3499 37.1958L27.4179 34.3924ZM25.9907 33.8487C26.8746 34.1854 27.0764 35.345 26.3583 35.9605L24.4059 33.6828C23.3962 34.5482 23.68 36.1787 24.9227 36.6522L25.9907 33.8487ZM26.3583 35.9605L26.4458 35.8855L24.4934 33.6077L24.4059 33.6828L26.3583 35.9605ZM26.4458 35.8855C27.1684 35.2661 27.4791 34.2917 27.2482 33.3683L24.3378 34.096C24.293 33.9169 24.3533 33.7279 24.4934 33.6077L26.4458 35.8855ZM27.2482 33.3683L27.184 33.1114L24.2736 33.839L24.3378 34.096L27.2482 33.3683Z" fill="white" mask="url(#path-4-outside-1_159_604664)"/>
<path d="M38.8703 20.4468L39.4994 18.8011L37.9738 19.6824L27.0576 25.9886L27.0509 25.9925L27.0444 25.9965C26.5303 26.3106 26.0344 26.6937 25.5972 27.1319C24.9726 27.7571 24.4596 28.4862 24.0826 29.2924L24.082 29.2935C23.7115 30.0897 23.4778 30.9516 23.4012 31.8281L23.4005 31.8361L23.4 31.844L23.3047 33.3943L23.264 34.0568L23.2518 34.2568L23.2484 34.3111L23.2476 34.3252L23.2473 34.3288L23.2473 34.3297L23.2473 34.3299L23.2473 34.33L23.8711 34.3683L23.2473 34.33L23.1986 35.1243L23.9817 34.9834L24.478 34.8941L24.6762 34.8585L24.8163 34.7139L24.4952 34.4028L24.8163 34.7139L24.8163 34.7139L24.8163 34.7138L24.8165 34.7137L24.817 34.7131L24.8191 34.7109L24.8273 34.7025L24.8572 34.6716L24.9565 34.569C25.0342 34.4887 25.128 34.3916 25.1907 34.3264L25.204 34.3125C25.9677 33.5183 26.4767 32.9889 28.0824 32.0233C28.3342 31.8719 28.6765 31.694 29.0945 31.4772C30.5675 30.7132 32.9549 29.4404 34.7375 27.2787C36.5076 25.3282 37.7436 23.394 38.8703 20.4468Z" fill="white" stroke="white" stroke-width="1.25" stroke-miterlimit="16"/>
<path d="M25.7695 33.3077L25.7547 33.2485H25.6937H23.162H23.101L23.0862 33.3077L22.9849 33.7132C22.8847 34.114 23.0195 34.5371 23.3332 34.8059L23.4207 34.881C23.5215 34.9674 23.4932 35.1302 23.3691 35.1774L21.942 35.7211C21.429 35.9165 21.1411 36.4627 21.2699 36.9964L21.8179 39.2665C21.9041 39.6235 22.1792 39.9043 22.5343 39.9978C23.7756 40.3244 25.0802 40.3244 26.3214 39.9978C26.6765 39.9043 26.9516 39.6235 27.0378 39.2665L27.5858 36.9964C27.7146 36.4627 27.4267 35.9165 26.9138 35.7211L25.4866 35.1774C25.3625 35.1302 25.3342 34.9674 25.435 34.881L25.5225 34.8059C25.8362 34.5371 25.9711 34.114 25.8708 33.7132L25.7695 33.3077Z" fill="#013568" stroke="#FAFAFA" stroke-width="0.15625" stroke-linejoin="round"/>
<path d="M24.7529 36.9294L24.749 36.9226C24.953 36.8048 25.2116 36.8663 25.3453 37.0576L25.3388 37.0621L25.3453 37.0576C25.3529 37.0685 25.3601 37.0799 25.3669 37.0916C25.3737 37.1034 25.3799 37.1153 25.3856 37.1273C25.4844 37.3388 25.4083 37.5935 25.2043 37.7113L24.776 37.9586V38.4532C24.776 38.6887 24.5935 38.8819 24.3609 38.9021L24.3609 38.9021C24.3477 38.9032 24.3342 38.9038 24.3207 38.9038C24.3071 38.9038 24.2937 38.9033 24.2804 38.9021C24.2804 38.9021 24.2804 38.9021 24.2804 38.9021L24.2811 38.8942C24.0525 38.8744 23.8732 38.6845 23.8732 38.4532L24.7529 36.9294ZM24.7529 36.9294L24.749 36.9226L24.3207 37.1699L23.8924 36.9226L23.8924 36.9226M24.7529 36.9294L23.8924 36.9226M23.8924 36.9226C23.6884 36.8048 23.4298 36.8663 23.2961 37.0576L23.8924 36.9226ZM23.437 37.7113L23.8653 37.9586L23.2558 37.1273C23.2558 37.1273 23.2558 37.1273 23.2558 37.1273C23.157 37.3388 23.233 37.5935 23.437 37.7113L23.437 37.7113Z" fill="white" stroke="white" stroke-width="0.0158227"/>
<path d="M23.2637 37.1305H23.2637C23.2692 37.1187 23.2753 37.1069 23.282 37.0954C23.2887 37.0838 23.2958 37.0728 23.3033 37.062L24.1236 37.5357C24.246 37.6063 24.3968 37.6063 24.5192 37.5357L25.3396 37.062C25.3471 37.0728 25.3542 37.0838 25.3608 37.0954C25.3675 37.1069 25.3736 37.1187 25.3792 37.1305H25.3791L24.5588 37.6042C24.4364 37.6748 24.361 37.8054 24.361 37.9467V38.8941C24.3479 38.8952 24.3347 38.8958 24.3214 38.8958C24.3081 38.8958 24.2949 38.8952 24.2819 38.8941V37.9467C24.2819 37.8054 24.2065 37.6748 24.0841 37.6042L23.2637 37.1305Z" fill="white"/>
<path d="M23.6758 37.3691C23.7982 37.4398 23.8736 37.5704 23.8736 37.7117V37.9543V38.4534C23.8736 38.6848 24.0528 38.8747 24.2814 38.8945V37.9472C24.2814 37.8058 24.206 37.6753 24.0836 37.6046L23.6758 37.3691Z" fill="#32ADE6"/>
<path d="M23.8732 37.7116C23.8732 37.5703 23.7978 37.4397 23.6755 37.369L23.263 37.1309C23.1658 37.3387 23.2406 37.5889 23.441 37.7046L23.8732 37.9542V37.7116Z" fill="#34C759"/>
<path d="M24.3613 38.4181C24.3613 38.2768 24.4367 38.1462 24.5591 38.0755L24.7692 37.9542L25.2014 37.7046C25.4018 37.589 25.4766 37.3387 25.3795 37.1309L24.5591 37.6045C24.4367 37.6752 24.3613 37.8058 24.3613 37.9471V38.418V38.4181Z" fill="#FF6F00"/>
<path d="M24.5591 38.0754C24.4367 38.1461 24.3613 38.2767 24.3613 38.418V38.8943C24.5899 38.8745 24.7692 38.6846 24.7692 38.4532V37.9541L24.5591 38.0754Z" fill="#FF2F2F"/>
<path d="M24.9265 37.3003C24.8041 37.371 24.6534 37.371 24.531 37.3003L24.3209 37.179L23.8886 36.9295C23.6883 36.8138 23.4342 36.8741 23.3027 37.0621L24.1231 37.5358C24.2455 37.6064 24.3963 37.6064 24.5187 37.5358L24.9265 37.3003V37.3003Z" fill="#FFCC02"/>
<path d="M24.5304 37.3003C24.6528 37.371 24.8036 37.371 24.926 37.3003L25.3385 37.0621C25.207 36.8741 24.9529 36.8138 24.7525 36.9295L24.3203 37.179L24.5304 37.3003V37.3003Z" fill="#0F5CCF"/>
<path d="M24.4279 34.1643C24.787 34.1643 25.1159 34.0917 25.3579 33.9706C25.5953 33.8519 25.7719 33.6735 25.7719 33.4532C25.7719 33.2329 25.5953 33.0545 25.3579 32.9358C25.1159 32.8148 24.787 32.7422 24.4279 32.7422C24.0689 32.7422 23.74 32.8148 23.4979 32.9358C23.2605 33.0545 23.084 33.2329 23.084 33.4532C23.084 33.6735 23.2605 33.852 23.4979 33.9706C23.74 34.0917 24.0689 34.1643 24.4279 34.1643Z" fill="#013568" stroke="white" stroke-width="0.15625"/>
<mask id="mask0_159_604664" style="mask-type:alpha" maskUnits="userSpaceOnUse" x="22" y="18" width="18" height="17">
<path fill-rule="evenodd" clip-rule="evenodd" d="M23.5803 32.9822L22.8994 29.2988L28.6785 23.5053L39.5683 18.439L38.3509 22.9466L33.9205 28.7694L29.8071 31.222L27.0797 32.7529L25.6698 33.5723C25.5582 33.8648 25.044 34.0859 24.4265 34.0859C23.7274 34.0859 23.1606 33.8025 23.1606 33.453C23.1606 33.2661 23.3227 33.0981 23.5803 32.9822Z" fill="#013568"/>
</mask>
<g mask="url(#mask0_159_604664)">
<path d="M24.427 34.1643C24.786 34.1643 25.1149 34.0917 25.357 33.9706C25.5943 33.8519 25.7709 33.6735 25.7709 33.4532C25.7709 33.2329 25.5943 33.0545 25.357 32.9358C25.1149 32.8148 24.786 32.7422 24.427 32.7422C24.0679 32.7422 23.739 32.8148 23.4969 32.9358C23.2596 33.0545 23.083 33.2329 23.083 33.4532C23.083 33.6735 23.2596 33.852 23.4969 33.9706C23.739 34.0917 24.0679 34.1643 24.427 34.1643Z" stroke="white" stroke-width="0.15625"/>
<path d="M23.9064 33.7288L23.748 36.2615L23.8711 36.0779C23.9524 35.6014 23.9592 35.2885 24.2185 34.9057C24.2897 34.8056 24.339 34.7417 24.3621 34.6173C24.3782 34.5335 24.3832 34.3622 24.3627 34.279L24.4878 34.1494C24.2045 34.0467 23.9064 33.7288 23.9064 33.7288Z" fill="#0E4D98"/>
<path d="M23.9064 33.7288L23.748 36.2615L23.8711 36.0779C23.9524 35.6014 23.9592 35.2885 24.2185 34.9057C24.2897 34.8056 24.339 34.7417 24.3621 34.6173C24.3782 34.5335 24.3832 34.3622 24.3627 34.279L24.4878 34.1494C24.2045 34.0467 23.9064 33.7288 23.9064 33.7288Z" fill="url(#paint0_linear_159_604664)"/>
<path d="M38.1579 20.3655C37.5149 22.0141 36.6832 23.6253 35.2503 24.6914C34.3436 25.3661 33.4562 25.883 32.7953 26.2313C32.465 26.4054 32.1914 26.5372 32.0006 26.6255C31.9052 26.6696 31.8304 26.7029 31.7797 26.725C31.7543 26.7361 31.7349 26.7444 31.7219 26.75L31.7072 26.7562L31.7035 26.7577L31.7027 26.758L31.7025 26.7581L31.7024 26.7581L30.8382 27.1156L31.7427 26.8778L31.7266 26.8166L31.7427 26.8778L31.7428 26.8778L31.7431 26.8777L31.7442 26.8775L31.7483 26.8764L31.7643 26.872C31.7784 26.8682 31.7992 26.8625 31.8263 26.8548C31.8804 26.8395 31.9595 26.8166 32.06 26.786C32.2609 26.7248 32.5471 26.6328 32.8889 26.5094C33.4776 26.2968 34.2319 25.9908 34.9989 25.5884C33.5884 26.9653 31.7454 27.8338 29.9351 28.532L29.2765 28.786L29.9698 28.6532C31.1839 28.4206 32.347 27.9507 33.4519 27.4077C32.8005 27.9792 31.9845 28.4818 31.1866 28.9004C30.2542 29.3897 29.3507 29.7623 28.7716 29.9954L27.871 30.3579L28.8111 30.1154C29.7313 29.878 30.7561 29.5426 31.6068 29.1918C31.0015 29.6414 30.3249 30.0377 29.6859 30.3843C29.3693 30.556 29.0607 30.7161 28.7749 30.8643C28.4045 31.0565 28.0723 31.2288 27.8102 31.381C27.8095 31.3808 27.8091 31.3807 27.8091 31.3807L27.8091 31.3807L27.8091 31.3807L27.8091 31.3808L27.8091 31.3808L27.8088 31.3809L27.8074 31.3818L27.8057 31.3828L27.7926 31.3907L27.7442 31.4198L27.7259 31.4308L27.7218 31.4332L27.7216 31.4333L27.7212 31.4336L27.7211 31.4336L27.7211 31.4336C27.7211 31.4336 27.7215 31.4337 27.7223 31.434C27.7287 31.4358 27.7602 31.446 27.7779 31.4734L38.1579 20.3655ZM38.1579 20.3655L35.5349 21.8498L35.5342 21.8502L27.3969 26.5839C27.2195 26.6923 27.0435 26.8092 26.8739 26.9345L26.8738 26.9346C26.5923 27.1416 26.3252 27.3706 26.0784 27.618L26.0784 27.6181C25.7326 27.9642 25.4236 28.3465 25.1588 28.7554C24.9882 29.0188 24.8346 29.2963 24.7002 29.5837L24.6429 29.5569L24.7003 29.5836C24.5402 29.9277 24.4077 30.2859 24.3057 30.6502C24.1936 31.0535 24.1176 31.4699 24.0811 31.8875C24.0811 31.8876 24.0811 31.8877 24.0811 31.8878L24.0773 31.9349L24.0773 31.9355M38.1579 20.3655L24.0773 31.9355M24.0773 31.9355L23.9287 34.3572C23.9287 34.3572 23.9287 34.3573 23.9287 34.3573C23.9232 34.4582 24.0442 34.51 24.1124 34.4406L24.1128 34.4402C24.3261 34.2262 24.5131 34.0317 24.6883 33.8495C25.4848 33.0211 26.0377 32.446 27.7209 31.4338L24.0773 31.9355Z" fill="#FFCC02" stroke="#C18B1E" stroke-width="0.126582" stroke-miterlimit="16"/>
<path d="M38.1589 20.3655C37.5158 22.0141 36.6841 23.6253 35.2513 24.6914C34.3446 25.3661 33.4571 25.883 32.7963 26.2313C32.4659 26.4054 32.1924 26.5372 32.0015 26.6255C31.9061 26.6696 31.8314 26.7029 31.7806 26.725C31.7553 26.7361 31.7358 26.7444 31.7228 26.75L31.7082 26.7562L31.7045 26.7577L31.7036 26.758L31.7034 26.7581L31.7034 26.7581L30.8392 27.1156L31.7437 26.8778L31.7276 26.8166L31.7437 26.8778L31.7438 26.8778L31.7441 26.8777L31.7451 26.8775L31.7493 26.8764L31.7653 26.872C31.7794 26.8682 31.8002 26.8625 31.8272 26.8548C31.8814 26.8395 31.9605 26.8166 32.061 26.786C32.2619 26.7248 32.5481 26.6328 32.8899 26.5094C33.4786 26.2968 34.2329 25.9908 34.9999 25.5884C33.5893 26.9653 31.7464 27.8338 29.9361 28.532L29.2774 28.786L29.9707 28.6532C31.1849 28.4206 32.348 27.9507 33.4528 27.4077C32.8015 27.9792 31.9855 28.4818 31.1876 28.9004C30.2552 29.3897 29.3517 29.7623 28.7726 29.9954L27.872 30.3579L28.812 30.1154C29.7323 29.878 30.7571 29.5426 31.6078 29.1918C31.0025 29.6414 30.3259 30.0377 29.6868 30.3843C29.3703 30.556 29.0617 30.7161 28.7759 30.8643C28.4055 31.0565 28.0733 31.2288 27.8112 31.381C27.8105 31.3808 27.8101 31.3807 27.8101 31.3807L27.8101 31.3807L27.8101 31.3807L27.8101 31.3808L27.8101 31.3808L27.8098 31.3809L27.8084 31.3818L27.8066 31.3828L27.7936 31.3907L27.7452 31.4198L27.7269 31.4308L27.7228 31.4332L27.7226 31.4333L27.7222 31.4336L27.7221 31.4336L27.7221 31.4336C27.7221 31.4336 27.7225 31.4337 27.7233 31.434C27.7297 31.4358 27.7612 31.446 27.7789 31.4734L38.1589 20.3655ZM38.1589 20.3655L35.5358 21.8498L35.5352 21.8502L27.3979 26.5839C27.2205 26.6923 27.0444 26.8092 26.8749 26.9345L26.8748 26.9346C26.5933 27.1416 26.3262 27.3706 26.0794 27.618L26.0793 27.6181C25.7336 27.9642 25.4246 28.3465 25.1598 28.7554C24.9892 29.0188 24.8356 29.2963 24.7012 29.5837L24.6439 29.5569L24.7012 29.5836C24.5411 29.9277 24.4087 30.2859 24.3067 30.6502C24.1945 31.0535 24.1186 31.4699 24.0821 31.8875C24.0821 31.8876 24.0821 31.8877 24.0821 31.8878L24.0783 31.9349L24.0783 31.9355M38.1589 20.3655L24.0783 31.9355M24.0783 31.9355L23.9297 34.3572C23.9297 34.3572 23.9297 34.3573 23.9297 34.3573C23.9241 34.4582 24.0452 34.51 24.1134 34.4406L24.1137 34.4402C24.3271 34.2262 24.5141 34.0317 24.6892 33.8495C25.4858 33.0211 26.0387 32.446 27.7218 31.4338L24.0783 31.9355Z" fill="url(#paint1_linear_159_604664)" stroke="#C18B1E" stroke-width="0.126582" stroke-miterlimit="16"/>
<g style="mix-blend-mode:screen" opacity="0.6">
<path d="M35.3384 25.3321C33.8858 26.896 31.8988 27.8428 29.9588 28.591C31.3081 28.3326 32.5959 27.7787 33.814 27.1557C32.42 28.5598 29.9553 29.5875 28.7962 30.0541C29.8833 29.7736 31.1163 29.3563 32.0324 28.9391C30.6366 30.0992 28.6795 30.9318 27.7554 31.4875C27.7406 31.4964 27.959 31.365 27.7554 31.4875C25.7093 32.7178 25.344 33.2956 24.1586 34.4849C24.0486 34.5969 23.8576 34.5117 23.8665 34.3536L24.0152 31.9304L24.019 31.8823C24.0558 31.4606 24.1325 31.0403 24.2457 30.6332C24.3487 30.2656 24.4823 29.9041 24.6439 29.5569C24.7795 29.2669 24.9345 28.9869 25.1067 28.721C25.3739 28.3084 25.6857 27.9226 26.0346 27.5733C26.2837 27.3236 26.5532 27.0925 26.8373 26.8836C27.0087 26.7569 27.1865 26.6389 27.3654 26.5295L35.504 21.7951L38.2816 20.2234C37.6289 21.9309 36.7849 23.6292 35.2891 24.7422C33.469 26.0964 31.7276 26.8166 31.7276 26.8166C31.7276 26.8166 33.566 26.3334 35.3384 25.3321Z" fill="url(#paint2_linear_159_604664)"/>
</g>
<path d="M38.1589 20.3655C37.5158 22.0141 36.6841 23.6253 35.2513 24.6914C34.3446 25.3661 33.4571 25.883 32.7963 26.2313C32.4659 26.4054 32.1924 26.5372 32.0015 26.6255C31.9061 26.6696 31.8314 26.7029 31.7806 26.725C31.7553 26.7361 31.7358 26.7444 31.7228 26.75L31.7082 26.7562L31.7045 26.7577L31.7036 26.758L31.7034 26.7581L31.7034 26.7581L30.8392 27.1156L31.7437 26.8778L31.7276 26.8166L31.7437 26.8778L31.7438 26.8778L31.7441 26.8777L31.7451 26.8775L31.7493 26.8764L31.7653 26.872C31.7794 26.8682 31.8002 26.8625 31.8272 26.8548C31.8814 26.8395 31.9605 26.8166 32.061 26.786C32.2619 26.7248 32.5481 26.6328 32.8899 26.5094C33.4786 26.2968 34.2329 25.9908 34.9999 25.5884C33.5893 26.9653 31.7464 27.8338 29.9361 28.532L29.2774 28.786L29.9707 28.6532C31.1849 28.4206 32.348 27.9507 33.4528 27.4077C32.8015 27.9792 31.9855 28.4818 31.1876 28.9004C30.2552 29.3897 29.3517 29.7623 28.7726 29.9954L27.872 30.3579L28.812 30.1154C29.7323 29.878 30.7571 29.5426 31.6078 29.1918C31.0025 29.6414 30.3259 30.0377 29.6868 30.3843C29.3703 30.556 29.0617 30.7161 28.7759 30.8643C28.4055 31.0565 28.0733 31.2288 27.8112 31.381C27.8105 31.3808 27.8101 31.3807 27.8101 31.3807L27.8101 31.3807L27.8101 31.3807L27.8101 31.3808L27.8101 31.3808L27.8098 31.3809L27.8084 31.3818L27.8066 31.3828L27.7936 31.3907L27.7452 31.4198L27.7269 31.4308L27.7228 31.4332L27.7226 31.4333L27.7222 31.4336L27.7221 31.4336L27.7221 31.4336C27.7221 31.4336 27.7225 31.4337 27.7233 31.434C27.7297 31.4358 27.7612 31.446 27.7789 31.4734L38.1589 20.3655ZM38.1589 20.3655L35.5358 21.8498L35.5352 21.8502L27.3979 26.5839C27.2205 26.6923 27.0444 26.8092 26.8749 26.9345L26.8748 26.9346C26.5933 27.1416 26.3262 27.3706 26.0794 27.618L26.0793 27.6181C25.7336 27.9642 25.4246 28.3465 25.1598 28.7554C24.9892 29.0188 24.8356 29.2963 24.7012 29.5837L24.6439 29.5569L24.7012 29.5836C24.5411 29.9277 24.4087 30.2859 24.3067 30.6502C24.1945 31.0535 24.1186 31.4699 24.0821 31.8875C24.0821 31.8876 24.0821 31.8877 24.0821 31.8878L24.0783 31.9349L24.0783 31.9355M38.1589 20.3655L24.0783 31.9355M24.0783 31.9355L23.9297 34.3572C23.9297 34.3572 23.9297 34.3573 23.9297 34.3573C23.9241 34.4582 24.0452 34.51 24.1134 34.4406L24.1137 34.4402C24.3271 34.2262 24.5141 34.0317 24.6892 33.8495C25.4858 33.0211 26.0387 32.446 27.7218 31.4338L24.0783 31.9355Z" stroke="#C18B1E" stroke-width="0.126582" stroke-miterlimit="16"/>
</g>
<defs>
<linearGradient id="paint0_linear_159_604664" x1="23.6362" y1="34.768" x2="24.6994" y2="34.8705" gradientUnits="userSpaceOnUse">
<stop offset="0.105" stop-color="#0E4D98"/>
<stop offset="0.215008" stop-color="#0E4D98"/>
<stop offset="0.28226" stop-color="#588BC8"/>
<stop offset="0.38" stop-color="#0E4D98"/>
<stop offset="0.627885" stop-color="#051932"/>
</linearGradient>
<linearGradient id="paint1_linear_159_604664" x1="26.4212" y1="26.0083" x2="30.5731" y2="29.9577" gradientUnits="userSpaceOnUse">
<stop stop-color="#FFDB4D"/>
<stop offset="0.539713" stop-color="#FCC802"/>
<stop offset="1" stop-color="#CE9400"/>
</linearGradient>
<linearGradient id="paint2_linear_159_604664" x1="26.4212" y1="26.0083" x2="37.2147" y2="24.5225" gradientUnits="userSpaceOnUse">
<stop stop-color="#CE9400"/>
<stop offset="0.460287" stop-color="#FCC802"/>
<stop offset="1" stop-color="#FFDB4D"/>
</linearGradient>
</defs>
</svg>
