<svg width="58" height="59" viewBox="0 0 58 59" fill="none" xmlns="http://www.w3.org/2000/svg">
<circle cx="29.002" cy="29.1626" r="26.4444" stroke="white" stroke-width="4.88889"/>
<circle cx="29.002" cy="29.1626" r="26.037" fill="#0F5CCF" stroke="#B70433" stroke-width="4.07407"/>
<circle cx="29.002" cy="29.1626" r="21.963" fill="#0F5CCF" stroke="white" stroke-width="4.07407"/>
<mask id="path-4-outside-1_159_604676" maskUnits="userSpaceOnUse" x="19.75" y="17.1626" width="19" height="24" fill="black">
<rect fill="white" x="19.75" y="17.1626" width="19" height="24"/>
<path fill-rule="evenodd" clip-rule="evenodd" d="M36.2621 19.1626C34.75 19.1626 33.3881 19.9087 32.4077 21.0045C32.1581 21.2835 31.9324 21.586 31.7348 21.9056C30.2446 21.9233 28.9037 22.6646 27.9351 23.7472C27.6212 24.098 27.3454 24.4857 27.1154 24.8981C25.6346 24.9234 24.3028 25.6625 23.3394 26.7394C22.3594 27.8346 21.75 29.2904 21.75 30.7317V39.1623H22.0607V36.2024C24.2659 36.1463 25.5936 34.8957 26.3457 33.481V36.1701H26.6564V33.2103C28.746 33.157 30.0477 32.0313 30.8184 30.7098V33.4275H31.1291V30.4676C34.9888 30.3693 36.1605 26.6116 36.2621 24.7203V19.4733V19.318V19.1626Z"/>
</mask>
<path d="M32.4077 21.0045L31.2898 20.0043V20.0043L32.4077 21.0045ZM36.2621 19.1626H37.7621V17.6626H36.2621V19.1626ZM31.7348 21.9056L31.7527 23.4055L32.5771 23.3957L33.0107 22.6944L31.7348 21.9056ZM27.9351 23.7472L29.0529 24.7473L29.0529 24.7473L27.9351 23.7472ZM27.1154 24.8981L27.141 26.3979L28.0047 26.3832L28.4254 25.6287L27.1154 24.8981ZM23.3394 26.7394L22.2215 25.7392L22.2215 25.7392L23.3394 26.7394ZM21.75 39.1623H20.25V40.6623H21.75V39.1623ZM22.0607 39.1623V40.6623H23.5607V39.1623H22.0607ZM22.0607 36.2024L22.0225 34.7029L20.5607 34.7402V36.2024H22.0607ZM26.3457 33.481H27.8457L25.0212 32.7769L26.3457 33.481ZM26.3457 36.1701H24.8457V37.6701H26.3457V36.1701ZM26.6564 36.1701V37.6701H28.1564V36.1701H26.6564ZM26.6564 33.2103L26.6183 31.7107L25.1564 31.748V33.2103H26.6564ZM30.8184 30.7098H32.3184V25.1599L29.5226 29.9542L30.8184 30.7098ZM30.8184 33.4275H29.3184V34.9275H30.8184V33.4275ZM31.1291 33.4275V34.9275H32.6291V33.4275H31.1291ZM31.1291 30.4676L31.0909 28.9681L29.6291 29.0053V30.4676H31.1291ZM36.2621 24.7203L37.7599 24.8008L37.7621 24.7606V24.7203H36.2621ZM33.5256 22.0047C34.2827 21.1585 35.2607 20.6626 36.2621 20.6626V17.6626C34.2394 17.6626 32.4936 18.6588 31.2898 20.0043L33.5256 22.0047ZM33.0107 22.6944C33.1625 22.4488 33.3354 22.2172 33.5256 22.0047L31.2898 20.0043C30.9807 20.3498 30.7024 20.7231 30.459 21.1168L33.0107 22.6944ZM29.0529 24.7473C29.8008 23.9115 30.7647 23.4172 31.7527 23.4055L31.717 20.4057C29.7244 20.4294 28.0066 21.4176 26.8172 22.747L29.0529 24.7473ZM28.4254 25.6287C28.6021 25.3119 28.8137 25.0148 29.0529 24.7473L26.8172 22.747C26.4287 23.1812 26.0886 23.6595 25.8053 24.1676L28.4254 25.6287ZM27.0898 23.3983C25.1104 23.4321 23.4046 24.4168 22.2215 25.7392L24.4572 27.7395C25.201 26.9082 26.1589 26.4147 27.141 26.3979L27.0898 23.3983ZM22.2215 25.7392C21.0227 27.079 20.25 28.8824 20.25 30.7317H23.25C23.25 29.6984 23.6961 28.5903 24.4572 27.7395L22.2215 25.7392ZM20.25 30.7317V39.1623H23.25V30.7317H20.25ZM21.75 40.6623H22.0607V37.6623H21.75V40.6623ZM23.5607 39.1623V36.2024H20.5607V39.1623H23.5607ZM22.0989 37.702C24.9808 37.6286 26.7351 35.9439 27.6702 34.1852L25.0212 32.7769C24.4521 33.8474 23.5509 34.664 22.0225 34.7029L22.0989 37.702ZM27.8457 36.1701V33.481H24.8457V36.1701H27.8457ZM26.6564 34.6701H26.3457V37.6701H26.6564V34.6701ZM25.1564 33.2103V36.1701H28.1564V33.2103H25.1564ZM29.5226 29.9542C28.9514 30.9336 28.075 31.6736 26.6183 31.7107L26.6946 34.7098C29.417 34.6404 31.1441 33.1289 32.1141 31.4654L29.5226 29.9542ZM32.3184 33.4275V30.7098H29.3184V33.4275H32.3184ZM31.1291 31.9275H30.8184V34.9275H31.1291V31.9275ZM29.6291 30.4676V33.4275H32.6291V30.4676H29.6291ZM34.7642 24.6399C34.7242 25.3848 34.4622 26.5217 33.8549 27.4372C33.2873 28.2929 32.4478 28.9335 31.0909 28.9681L31.1673 31.9671C33.6701 31.9034 35.3463 30.616 36.3549 29.0955C37.3238 27.6348 37.6984 25.9471 37.7599 24.8008L34.7642 24.6399ZM34.7621 19.4733V24.7203H37.7621V19.4733H34.7621ZM34.7621 19.318V19.4733H37.7621V19.318H34.7621ZM34.7621 19.1626V19.318H37.7621V19.1626H34.7621Z" fill="white" mask="url(#path-4-outside-1_159_604676)"/>
<mask id="path-6-outside-2_159_604676" maskUnits="userSpaceOnUse" x="29.8193" y="18.1626" width="7" height="16" fill="black">
<rect fill="white" x="29.8193" y="18.1626" width="7" height="16"/>
<path fill-rule="evenodd" clip-rule="evenodd" d="M36.2631 19.1626C34.751 19.1626 33.3891 19.9087 32.4087 21.0045C31.4287 22.0998 30.8193 23.5555 30.8193 24.9968V33.4275H31.1301V30.4676C34.9897 30.3693 36.1615 26.6116 36.2631 24.7203V19.4733V19.318V19.1626Z"/>
</mask>
<path d="M32.4087 21.0045L32.3422 20.9451L32.4087 21.0045ZM36.2631 19.1626H36.3522V19.0734H36.2631V19.1626ZM30.8193 33.4275H30.7302V33.5166H30.8193V33.4275ZM31.1301 33.4275V33.5166H31.2192V33.4275H31.1301ZM31.1301 30.4676L31.1278 30.3785L31.0409 30.3807V30.4676H31.1301ZM36.2631 24.7203L36.3522 24.7251V24.7203H36.2631ZM32.4751 21.0639C33.4423 19.983 34.7813 19.2518 36.2631 19.2518V19.0734C34.7206 19.0734 33.336 19.8344 32.3422 20.9451L32.4751 21.0639ZM30.9085 24.9968C30.9085 23.5798 31.5082 22.1447 32.4751 21.0639L32.3422 20.9451C31.3493 22.0549 30.7302 23.5313 30.7302 24.9968H30.9085ZM30.9085 33.4275V24.9968H30.7302V33.4275H30.9085ZM31.1301 33.3383H30.8193V33.5166H31.1301V33.3383ZM31.0409 30.4676V33.4275H31.2192V30.4676H31.0409ZM36.174 24.7155C36.1239 25.6492 35.8089 27.0451 35.0316 28.217C34.2566 29.3854 33.0236 30.3302 31.1278 30.3785L31.1323 30.5567C33.0962 30.5067 34.379 29.5235 35.1802 28.3156C35.979 27.1113 36.3007 25.6827 36.3521 24.7251L36.174 24.7155ZM36.1739 19.4733V24.7203H36.3522V19.4733H36.1739ZM36.1739 19.318V19.4733H36.3522V19.318H36.1739ZM36.1739 19.1626V19.318H36.3522V19.1626H36.1739Z" fill="white" mask="url(#path-6-outside-2_159_604676)"/>
<path d="M31.0182 24.9972C31.0182 23.6103 31.6058 22.2009 32.5566 21.1382C33.4975 20.0866 34.791 19.3777 36.2174 19.3632V24.7195C36.1661 25.6717 35.8415 27.1 35.0362 28.289C34.2379 29.4676 32.9677 30.411 31.0182 30.4252V24.9972Z" fill="url(#paint0_radial_159_604676)" fill-opacity="0.8" stroke="#005BBF" stroke-width="0.0891563"/>
<path d="M31.0182 24.9972C31.0182 23.6103 31.6058 22.2009 32.5566 21.1382C33.4975 20.0866 34.791 19.3777 36.2174 19.3632V24.7195C36.1661 25.6717 35.8415 27.1 35.0362 28.289C34.2379 29.4676 32.9677 30.411 31.0182 30.4252V24.9972Z" fill="url(#paint1_radial_159_604676)" fill-opacity="0.6" stroke="#005BBF" stroke-width="0.0891563"/>
<mask id="path-10-inside-3_159_604676" fill="white">
<path fill-rule="evenodd" clip-rule="evenodd" d="M32.4087 21.0045C33.3891 19.9087 34.751 19.1626 36.2631 19.1626V19.4733C34.8567 19.4733 33.5744 20.1676 32.6403 21.2117C31.7056 22.2563 31.1301 23.64 31.1301 24.9968V33.4275H30.8193V24.9968C30.8193 23.5555 31.4287 22.0998 32.4087 21.0045Z"/>
</mask>
<path fill-rule="evenodd" clip-rule="evenodd" d="M32.4087 21.0045C33.3891 19.9087 34.751 19.1626 36.2631 19.1626V19.4733C34.8567 19.4733 33.5744 20.1676 32.6403 21.2117C31.7056 22.2563 31.1301 23.64 31.1301 24.9968V33.4275H30.8193V24.9968C30.8193 23.5555 31.4287 22.0998 32.4087 21.0045Z" fill="url(#paint2_linear_159_604676)"/>
<path d="M36.2631 19.1626H36.3076V19.118H36.2631V19.1626ZM32.4087 21.0045L32.4419 21.0342L32.4087 21.0045ZM36.2631 19.4733V19.5179H36.3076V19.4733H36.2631ZM32.6403 21.2117L32.607 21.182L32.6403 21.2117ZM31.1301 33.4275V33.4721H31.1746V33.4275H31.1301ZM30.8193 33.4275H30.7748V33.4721H30.8193V33.4275ZM36.2631 19.118C34.7358 19.118 33.3625 19.8715 32.3755 20.9748L32.4419 21.0342C33.4157 19.9458 34.7662 19.2072 36.2631 19.2072V19.118ZM36.3076 19.4733V19.1626H36.2185V19.4733H36.3076ZM32.6735 21.2414C33.601 20.2048 34.8719 19.5179 36.2631 19.5179V19.4287C34.8416 19.4287 33.5478 20.1305 32.607 21.182L32.6735 21.2414ZM31.1746 24.9968C31.1746 23.6521 31.7454 22.2788 32.6735 21.2414L32.607 21.182C31.6659 22.2338 31.0855 23.6279 31.0855 24.9968H31.1746ZM31.1746 33.4275V24.9968H31.0855V33.4275H31.1746ZM30.8193 33.4721H31.1301V33.3829H30.8193V33.4721ZM30.7748 24.9968V33.4275H30.8639V24.9968H30.7748ZM32.3755 20.9748C31.389 22.0773 30.7748 23.5434 30.7748 24.9968H30.8639C30.8639 23.5676 31.4685 22.1222 32.4419 21.0342L32.3755 20.9748Z" fill="url(#paint3_linear_159_604676)" style="mix-blend-mode:screen" mask="url(#path-10-inside-3_159_604676)"/>
<path d="M26.5456 27.7399C26.5456 26.353 27.1332 24.9436 28.084 23.8809C29.0248 22.8293 30.3183 22.1203 31.7448 22.1058V27.4622C31.6934 28.4144 31.3689 29.8426 30.5635 31.0317C29.7652 32.2103 28.4951 33.1537 26.5456 33.1679V27.7399Z" fill="#EDEDED" fill-opacity="0.8" stroke="black" stroke-width="0.0891563"/>
<path d="M26.5456 27.7399C26.5456 26.353 27.1332 24.9436 28.084 23.8809C29.0248 22.8293 30.3183 22.1203 31.7448 22.1058V27.4622C31.6934 28.4144 31.3689 29.8426 30.5635 31.0317C29.7652 32.2103 28.4951 33.1537 26.5456 33.1679V27.7399Z" fill="url(#paint4_radial_159_604676)" fill-opacity="0.6" stroke="black" stroke-width="0.0891563"/>
<path fill-rule="evenodd" clip-rule="evenodd" d="M27.936 23.7477C28.9165 22.6518 30.2783 21.9058 31.7904 21.9058V22.2165C30.3841 22.2165 29.1017 22.9108 28.1676 23.9549C27.233 24.9995 26.6574 26.3832 26.6574 27.74V36.1706H26.3467V27.74C26.3467 26.2987 26.9561 24.8429 27.936 23.7477Z" fill="url(#paint5_linear_159_604676)"/>
<path d="M21.9518 30.7321C21.9518 29.3451 22.5394 27.9358 23.4902 26.8731C24.4311 25.8215 25.7246 25.1125 27.151 25.098V30.4544C27.0997 31.4066 26.7751 32.8348 25.9698 34.0239C25.1715 35.2025 23.9013 36.1459 21.9518 36.1601V30.7321Z" fill="#FF2F2F" fill-opacity="0.8" stroke="#B70433" stroke-width="0.0891563"/>
<path d="M21.9518 30.7321C21.9518 29.3451 22.5394 27.9358 23.4902 26.8731C24.4311 25.8215 25.7246 25.1125 27.151 25.098V30.4544C27.0997 31.4066 26.7751 32.8348 25.9698 34.0239C25.1715 35.2025 23.9013 36.1459 21.9518 36.1601V30.7321Z" fill="url(#paint6_radial_159_604676)" fill-opacity="0.6" stroke="#B70433" stroke-width="0.0891563"/>
<mask id="path-17-inside-4_159_604676" fill="white">
<path fill-rule="evenodd" clip-rule="evenodd" d="M23.3413 26.7394C24.3217 25.6435 25.6836 24.8975 27.1957 24.8975V25.2082C25.7893 25.2082 24.507 25.9025 23.5729 26.9466C22.6383 27.9912 22.0627 29.3749 22.0627 30.7317V39.1623H21.752V30.7317C21.752 29.2904 22.3614 27.8346 23.3413 26.7394Z"/>
</mask>
<path fill-rule="evenodd" clip-rule="evenodd" d="M23.3413 26.7394C24.3217 25.6435 25.6836 24.8975 27.1957 24.8975V25.2082C25.7893 25.2082 24.507 25.9025 23.5729 26.9466C22.6383 27.9912 22.0627 29.3749 22.0627 30.7317V39.1623H21.752V30.7317C21.752 29.2904 22.3614 27.8346 23.3413 26.7394Z" fill="url(#paint7_linear_159_604676)"/>
<path d="M27.1957 24.8975H27.2268V24.8664H27.1957V24.8975ZM23.3413 26.7394L23.3645 26.7601L23.3413 26.7394ZM27.1957 25.2082V25.2393H27.2268V25.2082H27.1957ZM23.5729 26.9466L23.5497 26.9258L23.5729 26.9466ZM22.0627 39.1623V39.1934H22.0938V39.1623H22.0627ZM21.752 39.1623H21.7209V39.1934H21.752V39.1623ZM27.1957 24.8664C25.673 24.8664 24.3032 25.6176 23.3181 26.7186L23.3645 26.7601C24.3403 25.6694 25.6942 24.9285 27.1957 24.9285V24.8664ZM27.2268 25.2082V24.8975H27.1646V25.2082H27.2268ZM23.596 26.9673C24.5255 25.9284 25.7999 25.2393 27.1957 25.2393V25.1771C25.7788 25.1771 24.4885 25.8766 23.5497 26.9258L23.596 26.9673ZM22.0938 30.7317C22.0938 29.3833 22.6659 28.0068 23.596 26.9673L23.5497 26.9258C22.6106 27.9755 22.0316 29.3664 22.0316 30.7317H22.0938ZM22.0938 39.1623V30.7317H22.0316V39.1623H22.0938ZM21.752 39.1934H22.0627V39.1313H21.752V39.1934ZM21.7209 30.7317V39.1623H21.783V30.7317H21.7209ZM23.3181 26.7186C22.3337 27.819 21.7209 29.2819 21.7209 30.7317H21.783C21.783 29.2988 22.389 27.8503 23.3645 26.7601L23.3181 26.7186Z" fill="url(#paint8_linear_159_604676)" style="mix-blend-mode:screen" mask="url(#path-17-inside-4_159_604676)"/>
<defs>
<radialGradient id="paint0_radial_159_604676" cx="0" cy="0" r="1" gradientUnits="userSpaceOnUse" gradientTransform="translate(35.5228 20.3895) rotate(112.909) scale(11.0744 5.25178)">
<stop offset="0.157616" stop-color="#005BBF"/>
<stop offset="1" stop-color="#8FBCED"/>
</radialGradient>
<radialGradient id="paint1_radial_159_604676" cx="0" cy="0" r="1" gradientUnits="userSpaceOnUse" gradientTransform="translate(35.5228 20.3895) rotate(112.909) scale(11.0744 5.25178)">
<stop offset="0.157616" stop-color="#005BBF"/>
<stop offset="1" stop-color="#8FBCED"/>
</radialGradient>
<linearGradient id="paint2_linear_159_604676" x1="33.5412" y1="19.1626" x2="31.4335" y2="31.6982" gradientUnits="userSpaceOnUse">
<stop offset="0.55" stop-color="#007AFF"/>
<stop offset="1" stop-color="#005BBF"/>
</linearGradient>
<linearGradient id="paint3_linear_159_604676" x1="31.4483" y1="20.9359" x2="34.0286" y2="22.0853" gradientUnits="userSpaceOnUse">
<stop offset="0.0587701" stop-color="white"/>
<stop offset="0.476818" stop-color="#DDDDDD" stop-opacity="0"/>
</linearGradient>
<radialGradient id="paint4_radial_159_604676" cx="0" cy="0" r="1" gradientUnits="userSpaceOnUse" gradientTransform="translate(30.6994 23.3812) rotate(109.026) scale(10.1724 2.45501)">
<stop offset="0.895" stop-color="white"/>
<stop offset="1" stop-color="#EDEDED"/>
</radialGradient>
<linearGradient id="paint5_linear_159_604676" x1="26.9371" y1="20.13" x2="29.0685" y2="36.1706" gradientUnits="userSpaceOnUse">
<stop stop-color="#666666"/>
<stop offset="1"/>
</linearGradient>
<radialGradient id="paint6_radial_159_604676" cx="0" cy="0" r="1" gradientUnits="userSpaceOnUse" gradientTransform="translate(27.1408 25.377) rotate(115.263) scale(12.1375 5.75592)">
<stop offset="0.633571" stop-color="#FF2F2F"/>
<stop offset="1" stop-color="#FF1212"/>
</radialGradient>
<linearGradient id="paint7_linear_159_604676" x1="22.9402" y1="25.5522" x2="24.4738" y2="39.1623" gradientUnits="userSpaceOnUse">
<stop stop-color="#FF2F2F"/>
<stop offset="0.49" stop-color="#B70433"/>
<stop offset="1" stop-color="#B70433"/>
</linearGradient>
<linearGradient id="paint8_linear_159_604676" x1="22.3809" y1="26.6708" x2="24.4939" y2="27.7894" gradientUnits="userSpaceOnUse">
<stop offset="0.0587701" stop-color="white"/>
<stop offset="0.476818" stop-color="#DDDDDD" stop-opacity="0"/>
</linearGradient>
</defs>
</svg>
